<?xml version="1.0" encoding="UTF-8" standalone="no"?>
<svg
   xmlns:dc="http://purl.org/dc/elements/1.1/"
   xmlns:cc="http://creativecommons.org/ns#"
   xmlns:rdf="http://www.w3.org/1999/02/22-rdf-syntax-ns#"
   xmlns:svg="http://www.w3.org/2000/svg"
   xmlns="http://www.w3.org/2000/svg"
   version="1.1"
   id="svg2"
   viewBox="0 0 540 540"
   height="6in"
   width="6in">
  <defs
     id="defs4" />
  <metadata
     id="metadata7">
    <rdf:RDF>
      <cc:Work
         rdf:about="">
        <dc:format>image/svg+xml</dc:format>
        <dc:type
           rdf:resource="http://purl.org/dc/dcmitype/StillImage" />
        <dc:title></dc:title>
      </cc:Work>
    </rdf:RDF>
  </metadata>
  <g
     transform="translate(0,-512.3622)"
     id="layer1">
    <path
       style="fill:#00d400"
       id="recycling-13-6"
       d="m 207.06062,992.15828 c 33.93385,9.88162 108.5477,3.5268 104.4424,-27.41441 -2.72206,-20.51582 -112.17236,-90.83108 -122.87963,-136.97458 68.17736,94.28718 163.811,147.04358 272.01673,153.89049 l 0,-16.31291 c -40.83577,0.9221 -92.36503,-16.79172 -115.51134,-31.44198 11.84496,-35.87895 4.9224,-87.37039 -24.16933,-121.74921 -57.62149,-67.87 -202.37824,-42.41387 -219.08597,-161.92783 -87.577961,160.27403 4.90176,312.78142 105.18714,341.93043 z" />
    <path
       style="fill:#0066ff"
       id="gear-2-icon"
       d="m 328.96061,784.5433 c 0,7.39915 -1.45425,14.46506 -4.09194,20.92691 -15.29887,-22.9537 -72.0766,-43.11902 -97.89006,-51.38111 9.9391,-15.10346 27.04302,-25.0928 46.436,-25.0928 30.628,0 55.546,24.918 55.546,55.547 z m 20.07443,56.73222 c 14.51845,-13.24724 21.35414,-37.28484 21.35414,-59.23222 0,-52.685 -42.861,-95.547 -95.546,-95.547 -38.25673,0 -70.36477,35.3533 -85.15333,53.54193 -16.80887,-4.28726 -52.57686,-29.4678 -61.1973,-41.66219 0.21839,-4.23944 -3.00254,-8.86911 -5.27937,-13.65874 l -13.653,-28.721 39.234,-39.234 28.723,13.653 c 10.986,5.222 23.67,5.548 34.905,0.889 0.005,-10e-4 0.009,-0.003 0.014,-0.005 11.207,-4.646 19.936,-13.843 24.001,-25.274 l 10.663,-29.982 55.484,0 10.663,29.982 c 4.067,11.438 12.785,20.623 24,25.273 0.004,0.002 0.009,0.003 0.014,0.005 11.229,4.657 23.93,4.33 34.908,-0.889 l 28.72,-13.652 39.234,39.234 -13.653,28.724 c -5.222,10.985 -5.548,23.668 -0.889,34.903 0.002,0.004 0.004,0.009 0.006,0.013 4.646,11.208 13.844,19.937 25.274,24.001 l 29.982,10.663 0,55.485 -29.963,10.655 c -11.449,4.071 -20.643,12.796 -25.297,24.021 -0.002,0 -0.004,0.01 -0.006,0.014 -4.653,11.218 -4.328,23.908 0.886,34.877 l 13.66,28.737 -39.234,39.234 -28.902,-13.738 c -5.76184,-2.73904 -8.99086,-2.96861 -18.23716,-4.12056 8.2537,-19.72338 5.76784,-65.093 -4.71498,-88.18922 z" />
  </g>
</svg>
