<?xml version="1.0" encoding="UTF-8" standalone="no"?><svg xmlns="http://www.w3.org/2000/svg" viewBox="0 0 540 540" height="100%" width="100%"><path d="M207.06 479.796c33.934 9.882 108.548 3.527 104.443-27.414-2.722-20.516-112.172-90.83-122.88-136.975 68.178 94.287 163.81 147.044 272.017 153.89v-16.312c-40.836.922-92.365-16.792-115.51-31.442 11.844-35.88 4.92-87.37-24.17-121.75-57.622-67.87-202.38-42.413-219.087-161.927-87.577 160.274 4.902 312.78 105.188 341.93z" fill="#00d400"/><path d="M328.96 272.18a55.25 55.25 0 0 1-4.09 20.928c-15.3-22.954-72.078-43.12-97.89-51.38 9.938-15.105 27.042-25.094 46.435-25.094 30.628 0 55.546 24.918 55.546 55.547zm20.075 56.733c14.518-13.247 21.354-37.285 21.354-59.232 0-52.684-42.862-95.546-95.547-95.546-38.257 0-70.365 35.353-85.153 53.542-16.81-4.287-52.577-29.468-61.197-41.662.218-4.24-3.003-8.87-5.28-13.66l-13.653-28.72 39.234-39.234 28.723 13.653a42.968 42.968 0 0 0 34.905.89l.014-.006a42.953 42.953 0 0 0 24-25.274L247.1 63.68h55.484l10.663 29.983a42.924 42.924 0 0 0 24 25.273l.014.005a42.995 42.995 0 0 0 34.91-.888l28.72-13.652 39.233 39.234-13.653 28.724a42.963 42.963 0 0 0-.89 34.903l.007.014a42.95 42.95 0 0 0 25.274 24l29.983 10.664v55.485l-29.963 10.655a42.963 42.963 0 0 0-25.297 24.02c-.002 0-.004.01-.006.015a42.957 42.957 0 0 0 .886 34.877l13.66 28.737-39.234 39.234-28.903-13.737c-5.762-2.74-8.99-2.97-18.237-4.12 8.254-19.724 5.768-65.093-4.715-88.19z" fill="#06f"/></svg>