<?xml version="1.0" encoding="UTF-8" standalone="no"?><svg xmlns="http://www.w3.org/2000/svg" viewBox="0 0 1000 1000" height="100%" width="100%"><defs><clipPath id="a"><path d="M2682.87 3288.93l5.29 238.06 39.75 8.89-5.04-226.95 730.22 207.59-.65-8.82-1.3-.37-2.6 1.93-765.67-220.33"/></clipPath></defs><path d="M991.523 999.996l1.844-344.267-276.27 48.805 188.968 295.46h85.458" fill="#a1896f" fill-rule="evenodd"/><path d="M737.232 623.33h-27.084l-16.666-27.918" fill="#dda525" fill-rule="evenodd"/><path d="M722.92 463.62L229.874 610.15l5.67 289.14L995.84 655.185v-34.55L722.92 463.618" fill="#837166" fill-rule="evenodd"/><path d="M723.025 429.324L1.06 599.904l235.685 257.482L995.94 620.89 723.025 429.325" fill="#b49f83" fill-rule="evenodd"/><path d="M21.25 1000.798h214.856V643.19H21.25v357.608z" fill="#b49f83" fill-rule="evenodd"/><path d="M253.313 1001.494v-128.75l-18.334 5v123.75h18.333M977.297 999.996h18.333V632.092h-18.333v367.904z" fill="#837166" fill-rule="evenodd"/><path d="M1.247 599.978v46.25l234.26 253.618.73-43.437L1.247 599.977" fill="#685c55" fill-rule="evenodd"/><g clip-path="url(#a)" transform="matrix(.13 0 0 -.13 33.898 1000)"><path d="M2682.87 3288.93h770.22v246.95h-770.22v-246.95z" fill="#968571"/></g><path d="M375.145 546.425l-.888 39.96 96.196-27.348 2.728-36.816-98.035 24.205" fill="#55595b" fill-rule="evenodd"/><path d="M415.982 623.993c-9.014 0-18.882-3.86-24.474-10.133l-22.25-24.976 96.033-27.3 30.48 22.74c8.75 6.532 7.363 14.472-3.085 17.645l-68.972 20.945c-2.407.73-5.03 1.077-7.73 1.077" fill="#968571"/><path d="M369.257 588.884l95.71-27.542.324.242-96.033 27.3" fill="#7d7060"/><path d="M469.966 558.842l30.804 22.983c8.75 6.53 7.363 14.47-3.085 17.644l-68.972 20.946c-10.448 3.17-24.94-.902-32.205-9.056l-22.25-24.976" fill="#6f7375"/><path d="M227.583 556.53L197.12 285.077c-.554-4.94.777-9.7 3.415-13.54a19.794 19.794 0 0 0-.914 8.54l30.94 275.69-2.977.765" fill="#7cb1af"/><path d="M246.542 586.256c-8.906 0-16.347-6.458-17.404-15.866l-1.555-13.86 2.977-.762 1.078 9.622c1.057 9.407 8.498 15.866 17.403 15.866 1.368 0 2.77-.152 4.188-.47l52.067-11.645c.212 1.396.456 2.83.706 4.284l-55.272 12.362c-1.417.318-2.82.47-4.186.47m61.826-13.362c-.217-1.43-.436-2.864-.646-4.296l62.295-13.934-.1 4.462-61.55 13.768m163.774-36.63l.336-4.518 133.392-29.836c6.04-1.35 11.354-5.433 14.75-10.7-2.786 7.586-9.405 13.945-17.25 15.7L472.14 536.262" fill="#968571"/><path d="M369.918 559.126l.1-4.462 4.968-1.11-.1 4.46-4.968 1.112" fill="#7d7060"/><path d="M374.887 558.015l.1-4.462 97.49-21.807-.336 4.517-97.253 21.752" fill="#494b4d"/><path d="M199.62 280.076c-1.218-10.85 6.655-20.81 17.495-22.133l377.89-46.074c10.84-1.322 20.035 6.524 20.433 17.438l9.08 248.427c.4 10.913-7.993 21.79-18.65 24.175l-352.64 78.876c-10.656 2.384-20.37-4.543-21.59-15.396L199.62 280.076" fill="#858989" fill-rule="evenodd"/><path d="M229.963 293.406l348.972-46.026 13.362 226.077-332.745 66.484-29.59-246.534" fill="#fff" fill-rule="evenodd"/><path d="M395.947 251.092a5.956 5.956 0 1 1 5.67 6.23 5.954 5.954 0 0 1-5.67-6.23" fill="#141515"/><path d="M305.193 568.454c1.447 9.99 4.828 21.916-.123 31.44-2.662 5.12-7.263 9.115-11.652 12.718-4.05 3.327-8.318 6.442-12.533 9.56-16.67 12.338-36.96 28.285-37.022 51.09-.015 5.147 1.333 10.16 3.332 14.865.627 1.48 2.78.204 2.157-1.26-10.655-25.097 10.494-45.73 28.875-59.616 8.428-6.366 17.643-12.254 24.74-20.136 6.618-7.35 7.704-15.734 6.63-25.253-.53-4.706-1.315-9.384-1.994-14.07-.23-1.59-2.638-.913-2.41.664" fill="#f1f5f6"/><path d="M270.226 767.01c-11.814 0-22.704-7.728-26.19-19.638l-9.013-30.807c-3.468-11.85 1.472-24.168 11.323-30.56.267.714.55 1.42.85 2.122.196.467.545.66.91.66.796 0 1.674-.916 1.246-1.92a39.907 39.907 0 0 1-.834-2.134c1.297-.68 2.662-1.262 4.093-1.735l3.093 10.05c-.77.65-1.143 1.61-.88 2.515l3.832 13.092c.286.985 1.247 1.618 2.365 1.67l1.938 6.3c-.128.28-.16.605-.07.92l.747 2.543a1.32 1.32 0 0 0 1.642.897 1.324 1.324 0 0 0 .9-1.64l-.742-2.54a1.32 1.32 0 0 0-.577-.756l-1.917-6.23c1.015-.635 1.552-1.75 1.247-2.788l-3.827-13.085c-.302-1.03-1.338-1.676-2.517-1.676-.098 0-.197.006-.297.015l-3.03-9.845c2.245-.57 4.5-.845 6.724-.845 11.81 0 22.7 7.727 26.183 19.637l9.014 30.805c4.238 14.473-4.064 29.635-18.534 33.868-2.558.75-5.14 1.105-7.677 1.105" fill="#968571"/><path d="M248.106 688.786c-.365 0-.714-.192-.91-.658-.3-.702-.583-1.41-.85-2.124.7-.455 1.425-.88 2.172-1.272.254.71.53 1.418.834 2.134.428 1.005-.45 1.92-1.246 1.92" fill="#c8cccc"/><path d="M252.808 682.933c.248-.08.5-.158.75-.232l-.75.232" fill="#968571"/><path d="M262.958 716.625l-1.938-6.3.15.002c.306 0 .623-.043.94-.135.302-.09.58-.217.83-.373l1.918 6.23a1.31 1.31 0 0 0-1.067-.144c-.383.11-.677.382-.832.72m-7.255-23.577l-3.092-10.052v-.004l.198-.06.75-.233.95-.29.008.03 3.03 9.845c-.213.02-.428.06-.643.123-.46.136-.867.358-1.2.64" fill="#968571"/><path d="M264.905 721.04a1.32 1.32 0 0 1-1.27-.953l-.747-2.54c-.09-.317-.058-.642.07-.922.155-.338.45-.61.833-.72a1.306 1.306 0 0 1 1.068.144c.27.164.48.428.577.756l.742 2.538a1.324 1.324 0 0 1-1.272 1.695M261.17 710.327c-.05 0-.1 0-.15-.003-1.118-.05-2.08-.684-2.365-1.67l-3.833-13.092c-.262-.903.11-1.863.88-2.513.334-.284.74-.506 1.2-.642a3.462 3.462 0 0 1 .94-.137c1.18 0 2.216.646 2.518 1.678l3.827 13.085c.305 1.038-.232 2.152-1.246 2.786-.25.155-.528.283-.83.373-.317.09-.634.135-.94.135" fill="#968571"/><path d="M291.437 729.538c4.238 14.472-4.064 29.635-18.534 33.867-14.47 4.234-29.632-4.065-33.867-18.532l-9.013-30.808c-4.235-14.466 4.063-29.634 18.535-33.863 14.468-4.236 29.634 4.06 33.865 18.53l9.014 30.805" fill="#6f7375"/><path d="M247.61 680.494l10.508 34.152 1.898-.583-10.51-34.153" fill="#3f4043"/><path d="M261.177 716.844a1.324 1.324 0 1 1-2.542.743l-.747-2.54a1.327 1.327 0 1 1 2.547-.74l.742 2.537" fill="#ed333d"/><path d="M259.187 704.533c.38 1.296-.55 2.706-2.077 3.16-1.532.443-3.078-.242-3.455-1.538l-3.833-13.09c-.376-1.298.556-2.708 2.08-3.158 1.53-.445 3.078.242 3.458 1.54l3.827 13.085" fill="#3f4043"/><path d="M421.398 767.81l-74.843-75.94v-9.53l249.127-72.59 85.846 69.337-260.13 88.723" fill="#968571"/><path d="M423.898 762.81l260.13-88.722-85.846-69.338-249.127 72.59v9.53l74.843 75.94" fill="#55595b" fill-rule="evenodd"/><path d="M425.69 753.058l260.838-85.845-85.846-69.338-251.76 79.242 76.768 75.94" fill="#6f7375" fill-rule="evenodd"/><path d="M391.757 686.567l22.524-6.842-8.43-6.815-21.615 6.946 7.522 6.71M416.963 678.6l13.19-4.174-9.376-6.56-12.244 3.863 8.43 6.87M432.233 673.65l13.19-4.176-9.376-6.56-12.24 3.864 8.426 6.872M447.916 668.904l13.19-4.177-9.375-6.56-12.242 3.864 8.428 6.874M462.98 663.95l13.19-4.174-9.375-6.562-12.243 3.863 8.43 6.873M478.252 658.793l13.19-4.177-9.377-6.56-12.243 3.864 8.43 6.873M493.522 653.84l13.19-4.176-9.376-6.56-12.243 3.864 8.43 6.872M509.206 649.092l13.19-4.175-9.378-6.56-12.24 3.863 8.428 6.873M524.27 644.14l13.19-4.175-9.377-6.56-12.242 3.864 8.43 6.87M539.54 638.775l13.19-4.175-9.378-6.56-12.24 3.863 8.43 6.872M554.81 633.824l13.19-4.176-9.375-6.563-12.243 3.865 8.428 6.874M570.493 629.076l13.19-4.177-9.376-6.562-12.24 3.866 8.426 6.872M585.558 624.122l13.192-4.175-9.378-6.56-12.242 3.863 8.428 6.873M403.036 697.298l22.525-6.842-8.43-6.816-21.615 6.948 7.52 6.71M428.243 689.332l13.19-4.175-9.376-6.56-12.242 3.863 8.428 6.873M443.513 684.38l13.19-4.175-9.376-6.563-12.24 3.867 8.426 6.87M459.197 679.635l13.19-4.176-9.376-6.564-12.242 3.867 8.43 6.872M474.26 674.68l13.19-4.174-9.375-6.56-12.242 3.863 8.428 6.87M489.53 669.524l13.192-4.176-9.376-6.563-12.243 3.864 8.428 6.874M504.802 664.57l13.19-4.175-9.376-6.56-12.24 3.862 8.426 6.873M520.486 659.824l13.19-4.175-9.376-6.562-12.243 3.863 8.43 6.874M535.55 654.87l13.19-4.175-9.377-6.563-12.24 3.868 8.427 6.87M550.82 649.506l13.19-4.175-9.375-6.56-12.243 3.864 8.43 6.872M566.09 644.554l13.19-4.178-9.374-6.56-12.243 3.865 8.428 6.874M581.775 639.806l13.188-4.176-9.375-6.56-12.242 3.865 8.43 6.87M596.838 634.854l13.19-4.175-9.376-6.562-12.242 3.863 8.428 6.874M413.767 708.58l22.525-6.845-8.432-6.816-21.615 6.95 7.522 6.71M438.973 700.614l13.192-4.177-9.378-6.56-12.24 3.864 8.426 6.874M454.245 695.66l13.19-4.174-9.377-6.56-12.242 3.863 8.43 6.87M469.928 690.915l13.19-4.175-9.377-6.563-12.24 3.864 8.428 6.875M484.992 685.963l13.19-4.177-9.376-6.56-12.243 3.864 8.43 6.873M500.262 680.804l13.19-4.176-9.375-6.563-12.242 3.865 8.427 6.874M515.533 675.85l13.19-4.175-9.376-6.56-12.244 3.863 8.43 6.872M531.216 671.104l13.19-4.175-9.376-6.562-12.242 3.863 8.428 6.874M546.28 666.153l13.19-4.178-9.377-6.563-12.24 3.867 8.427 6.873M561.55 660.786l13.19-4.175-9.374-6.56-12.243 3.863 8.428 6.873M576.822 655.832l13.19-4.173-9.376-6.563-12.243 3.863 8.43 6.872M592.505 651.087l13.19-4.175-9.377-6.56-12.24 3.863 8.427 6.873M607.568 646.136l13.19-4.176-9.375-6.56-12.242 3.864 8.428 6.872M427.25 719.585l22.525-6.844-8.433-6.814-21.615 6.95 7.523 6.71M452.456 711.62l13.19-4.176-9.376-6.56-12.243 3.864 8.43 6.872M467.727 706.668l13.19-4.175-9.377-6.563-12.243 3.864 8.43 6.874M483.41 701.923l13.19-4.177-9.377-6.562-12.24 3.865 8.427 6.873M498.473 696.97l13.192-4.178-9.378-6.56-12.24 3.864 8.426 6.873M513.745 691.81l13.19-4.176-9.377-6.56-12.242 3.862 8.43 6.873M529.016 686.857l13.19-4.175-9.378-6.56-12.242 3.863 8.43 6.873M544.698 682.11l13.19-4.175-9.376-6.56-12.242 3.864 8.428 6.87M559.762 677.156l13.19-4.173-9.376-6.563-12.24 3.865 8.426 6.87M575.033 671.794l13.19-4.176-9.376-6.563-12.242 3.864 8.428 6.874M590.303 666.84l13.192-4.176-9.377-6.562-12.242 3.865 8.427 6.873M605.988 662.094l13.19-4.177-9.376-6.56-12.244 3.864 8.43 6.874M621.05 657.14l13.19-4.175-9.377-6.563-12.24 3.865 8.428 6.874M438.945 731.28l22.522-6.843-8.43-6.816-21.616 6.95 7.525 6.71M464.15 723.314l13.19-4.174-9.377-6.563-12.242 3.865 8.43 6.872M479.42 718.362l13.19-4.176-9.377-6.56-12.24 3.864 8.427 6.873M495.103 713.616l13.192-4.176-9.378-6.56-12.24 3.864 8.426 6.872M510.51 708.664l74.215-24.115-7.982-6.606-74.66 23.846 8.428 6.874M586.728 683.486l13.188-4.174-9.375-6.56-12.242 3.863 8.43 6.87M601.997 678.536l13.19-4.176-9.376-6.563-12.24 3.864 8.427 6.876M617.68 673.79l13.19-4.176-9.375-6.563-12.243 3.865 8.43 6.875M632.745 668.836l13.192-4.176-9.377-6.56-12.243 3.864 8.428 6.872" fill="#55595b" fill-rule="evenodd"/><path d="M302.442 456.27l-10.245-66.458 2.918-.45 9.915 64.318 168.888-26.034.33 2.138-171.806 26.485" fill="#d4d4d2"/><path d="M292.09 389.83l-1.848-11.99 2.918-.45 1.518 9.85.107-.015.33 2.138-2.918.45-.106.016" fill="#d4d4d2"/><path d="M305.03 453.68l171.806-26.484-10.45-67.785-171.806 26.486 10.45 67.784" fill="#dcdcd9"/><path d="M465.01 348.71l-172.18 26.543 1.848 11.987.107-.015 171.807-26.485.265-.04-1.847-11.99" fill="#92d3ce"/><path d="M466.037 355.374l-14.522 2.238-1.027-6.662 14.522-2.24 1.027 6.664" fill="#ed333d" fill-rule="evenodd"/><path d="M457.2 355.404l-.955.147 1.758-2.4-2.253-1.675.992-.153 1.72 1.324 1.233-1.78.943-.145-1.64 2.276 2.362 1.768-.984.15-1.823-1.425-1.352 1.914" fill="#eaeae9"/><path d="M318.91 437.236c-1.244 0-1.84-.934-1.333-2.236l.295-.758 5.215-.803.293 1.89 36.123-5.568c.05.737-.497 1.325-1.53 1.484l-16.522 2.548-5.582.86-16.522 2.547c-.153.025-.3.036-.436.036" fill="#b6b9b6"/><path d="M327.852 395.982c.563-1.447 1.82-1.64 2.79-.43l10.468 13.037c.972 1.21 2.565 3.19 3.537 4.402l10.466 13.034c.973 1.21.513 2.396-1.022 2.633l-16.522 2.546-5.582.86-16.523 2.548c-1.535.236-2.33-.755-1.768-2.203l6.057-15.58 2.045-5.265 6.055-15.582" fill="#e3c929" fill-rule="evenodd"/><path d="M328.937 405.382c.25-.08.5-.147.744-.206a10.685 10.685 0 0 1 1.59-.245c.28-.02.562-.034.845-.038l2.125 14.967a8.33 8.33 0 0 1-1.378.332 7.232 7.232 0 0 1-1.414.098l-2.51-14.908m3.172 21.373a11.606 11.606 0 0 1-.37-1.616 12.658 12.658 0 0 1-.144-1.713c.274-.08.54-.153.805-.212.265-.063.535-.115.813-.158.277-.042.56-.075.85-.098.292-.028.577-.04.86-.045a12.177 12.177 0 0 1 .377 1.646 12.698 12.698 0 0 1 .138 1.68c-.273.084-.546.157-.818.22a12.834 12.834 0 0 1-1.664.256c-.28.024-.563.035-.846.04M364.705 389.69l61.183-9.43-.085-.556-61.183 9.43.085.556M365.647 395.796l89.528-13.8-.085-.555-89.53 13.8.087.556M366.482 401.224l89.53-13.8-.086-.556-89.53 13.8.086.556M367.32 406.65l89.527-13.8-.085-.554-89.527 13.802.086.553M368.157 412.08l89.528-13.8-.087-.556-89.526 13.8.085.556M368.995 417.506l89.526-13.8-.084-.554-89.528 13.8.087.554" fill="#28292a"/><path d="M396.647 428.996l-24.774 3.66-1.37-9.282 24.774-3.66 1.37 9.282M425.98 424.683l-24.774 3.658-1.37-9.28 24.774-3.66 1.37 9.283" fill="#abb2b0" fill-rule="evenodd"/><path d="M474.5 412.035l-.33-2.138 20.686-3.188.33 2.136-20.686 3.19m-160.877-39.99l-.488-3.17 2.917-.45.49 3.17-2.92.45" fill="#d4d4d2"/><path d="M359.503 429.763c-.025-.36-.19-.752-.507-1.148l-.69-.857 12.56-1.937.315 2.143-11.677 1.8m36.428-5.617l-.315-2.14 4.552-.7.316 2.14-4.552.7m29.303-4.516l-.315-2.14 49.252-7.592.33 2.137-49.267 7.595m-104.926-4.23l-4.835-31.365 2.918-.45 4.055 26.314-.648 1.665c-.4 1.034-.985 2.535-1.49 3.836" fill="#b6b9b6"/><path d="M315.472 384.035l-1.85-11.988 2.92-.45 1.848 11.99-2.918.448" fill="#7cb1af"/><path d="M323.38 435.33l-.293-1.89 8.9-1.374 5.58-.86 16.524-2.547c.438-.07.788-.213 1.043-.414l3.174-.49.69.86c.316.395.48.788.506 1.146l-36.123 5.57" fill="#999b9b"/><path d="M323.087 433.44l-2.78-18.04c.505-1.3 1.09-2.8 1.49-3.835l.648-1.666 3.522 22.843 29.166-4.497c-.255.202-.605.345-1.042.413l-16.522 2.546-5.582.86-8.9 1.373" fill="#beaa26"/><path d="M371.18 427.962l-.315-2.14 24.75-3.816.316 2.14-24.75 3.816M400.483 423.445l-.316-2.14 24.75-3.816.316 2.14-24.75 3.815" fill="#909595"/><path d="M313.028 368.89l-1.848-11.986 2.917-.45 1.52 9.85.105-.016.33 2.137-2.917.45-.107.016" fill="#d4d4d2"/><path d="M325.967 432.743l171.806-26.484-10.448-67.786-171.808 26.485 10.45 67.783" fill="#dcdcd9"/><path d="M485.947 327.774l-172.18 26.54 1.85 11.99.105-.016 171.808-26.485.265-.042-1.848-11.986" fill="#92d3ce"/><path d="M486.975 334.436l-14.523 2.24-1.026-6.664 14.52-2.238 1.03 6.662" fill="#ed333d" fill-rule="evenodd"/><path d="M478.138 334.466l-.956.148 1.76-2.402-2.255-1.675.993-.152 1.72 1.324 1.232-1.78.944-.146-1.643 2.275 2.364 1.765-.984.152-1.822-1.426-1.352 1.916" fill="#eaeae9"/><path d="M339.847 416.3c-1.244 0-1.84-.935-1.332-2.238l.295-.757 2.043-.315.48 3.112-1.05.162c-.152.023-.298.035-.436.035" fill="#b6b9b6"/><path d="M348.79 375.045c.562-1.448 1.818-1.64 2.79-.43l10.468 13.036 3.537 4.405 10.466 13.034c.973 1.21.513 2.395-1.022 2.63l-16.522 2.55c-1.535.235-4.048.622-5.583.86l-16.522 2.546c-1.534.236-2.33-.755-1.768-2.202l6.058-15.58 2.045-5.267 6.055-15.582" fill="#e3c929" fill-rule="evenodd"/><path d="M349.875 384.445c.25-.08.5-.148.743-.206a10.685 10.685 0 0 1 1.59-.246c.28-.023.562-.035.844-.04l2.125 14.967c-.442.15-.902.262-1.377.335a7.232 7.232 0 0 1-1.414.097l-2.51-14.907m3.17 21.372a11.606 11.606 0 0 1-.37-1.616 12.658 12.658 0 0 1-.143-1.71c.274-.08.54-.154.805-.213.264-.062.534-.115.813-.157.277-.043.56-.075.85-.1.292-.025.577-.04.86-.043a12.177 12.177 0 0 1 .377 1.647c.043.276.075.556.098.835.023.28.035.56.04.845-.273.08-.545.155-.818.217a12.834 12.834 0 0 1-1.664.257c-.28.022-.562.034-.846.037M385.642 368.753l61.184-9.432-.085-.554-61.183 9.432.085.555M386.585 374.86l89.527-13.803-.085-.553-89.53 13.8.088.555M387.42 380.286l89.528-13.8-.085-.556-89.528 13.8.085.556M388.258 385.714l89.527-13.8-.085-.555-89.528 13.8.086.554M389.095 391.142l89.527-13.8-.086-.556-89.526 13.8.085.556M389.932 396.57l89.526-13.8-.085-.555-89.527 13.8.086.554" fill="#28292a"/><path d="M417.585 408.06l-24.774 3.658-1.37-9.282 24.775-3.658 1.37 9.28M446.918 403.745l-24.775 3.66-1.37-9.282 24.774-3.66 1.37 9.282" fill="#abb2b0" fill-rule="evenodd"/><path d="M331.39 351.6l-.13-.85 2.917-.45.13.85-2.916.45" fill="#d4d4d2"/><path d="M341.503 417.206l-.17-1.104 15.473-2.385 5.582-.86 16.523-2.548c.943-.146 1.48-.65 1.53-1.295l11.706-1.805.316 2.14-50.96 7.856m-2.582-16.762l-5.682-36.857 2.918-.45 4.902 31.804c-.132.345-.258.667-.368.952l-1.77 4.552" fill="#b6b9b6"/><path d="M333.238 363.587L331.39 351.6l2.918-.45 1.848 11.988-2.918.45" fill="#7cb1af"/><path d="M341.333 416.102l-.48-3.112 2.92-.45.32 2.077 36.347-5.602c-.05.646-.587 1.15-1.53 1.294l-16.522 2.546c-1.535.238-4.047.624-5.582.86l-15.473 2.386" fill="#999b9b"/><path d="M340.853 412.99l-1.933-12.546 1.77-4.55.368-.953 2.714 17.6-2.92.45" fill="#beaa26"/><path d="M417.212 405.535l-.316-2.14 4.552-.7.317 2.14-4.553.7" fill="#b6b9b6"/><path d="M495.795 393.42l-.33-2.136 17.516-2.7.33 2.137-17.515 2.7" fill="#d4d4d2"/><path d="M446.515 401.018l-.317-2.14 49.267-7.594.33 2.137-49.28 7.598" fill="#b6b9b6"/><path d="M392.462 409.35l-.316-2.14 24.75-3.815.316 2.14-24.75 3.815M421.765 404.834l-.317-2.14 24.75-3.816.317 2.14-24.75 3.816" fill="#909595"/><path d="M331.153 350.766l-1.848-11.987 172.18-26.544 1.312 8.522-169.155 26.076.535 3.466-2.917.45-.107.016" fill="#d4d4d2"/><path d="M344.092 414.618l171.806-26.484-10.448-67.785-171.808 26.484 10.45 67.784" fill="#dcdcd9"/><path d="M504.072 309.65l-172.18 26.54 1.85 11.988.105-.015 171.808-26.485.265-.042-1.848-11.987" fill="#92d3ce"/><path d="M505.1 316.31l-14.523 2.24-1.026-6.663 14.522-2.238 1.028 6.66" fill="#ed333d" fill-rule="evenodd"/><path d="M496.263 316.34l-.956.15 1.76-2.403-2.256-1.675.995-.152 1.72 1.324 1.232-1.78.945-.145-1.642 2.274 2.362 1.766-.984.152-1.822-1.426-1.353 1.915" fill="#eaeae9"/><path d="M357.972 398.174c-1.244 0-1.84-.933-1.332-2.237l6.057-15.58 2.045-5.266 6.054-15.583c.315-.807.845-1.226 1.422-1.226.455 0 .94.262 1.37.797l10.468 13.037c.97 1.21 2.564 3.192 3.536 4.403l10.466 13.034c.973 1.214.513 2.397-1.022 2.634l-16.523 2.547c-1.535.24-4.047.625-5.582.862l-16.522 2.547c-.152.022-.298.034-.436.034" fill="#b6b9b6"/><path d="M366.915 356.92c.562-1.448 1.818-1.64 2.79-.43l10.468 13.035 3.537 4.405 10.466 13.034c.972 1.212.512 2.396-1.023 2.632l-16.522 2.548-5.582.86-16.522 2.547c-1.535.237-2.33-.754-1.77-2.2l6.06-15.583c.56-1.447 1.48-3.816 2.044-5.265l6.055-15.582" fill="#e3c929" fill-rule="evenodd"/><path d="M368 366.32c.25-.08.5-.148.742-.206a10.862 10.862 0 0 1 1.59-.245c.28-.024.563-.036.845-.04l2.125 14.966c-.442.15-.902.26-1.377.334a7.136 7.136 0 0 1-1.414.097L368 366.32zm3.172 21.372a11.606 11.606 0 0 1-.37-1.616 12.658 12.658 0 0 1-.144-1.71c.273-.082.54-.155.805-.214.264-.062.534-.115.813-.157.276-.043.56-.075.85-.1.29-.025.576-.04.86-.043a12.177 12.177 0 0 1 .376 1.647c.043.275.075.555.098.834.023.28.035.563.04.846-.273.082-.545.155-.818.217a12.834 12.834 0 0 1-1.664.257c-.28.022-.562.035-.846.038M403.767 350.627l61.184-9.43-.084-.556-61.184 9.432M404.71 356.734l89.527-13.802-.085-.553-89.53 13.8M405.545 362.16l89.528-13.8-.085-.555-89.528 13.8M406.383 367.59l89.527-13.802-.085-.554-89.528 13.8M407.22 373.017l89.527-13.8-.086-.556-89.525 13.802M408.057 378.444l89.526-13.8-.085-.554-89.527 13.8" fill="#28292a"/><path d="M435.71 389.934l-24.774 3.66-1.37-9.283 24.772-3.657 1.372 9.28M465.042 385.62l-24.774 3.66-1.37-9.284 24.774-3.657 1.37 9.28" fill="#abb2b0" fill-rule="evenodd"/><path d="M879.366 485.697c-4.173 21.714-12.826 44.904-28.49 68.63 12.237 14.375 19.65 24.727 18.802 27.897-5.828 21.77-158.566 88.297-189.827 96.49-50.212 13.16-39.215 59.472-39.215 59.472 10.073 49.378 70.75 24.608 70.75 24.608S964.672 645.08 970.01 600.774c2.38-19.75-40.118-66.798-90.642-115.077" fill="#31747a"/><path d="M867.9 370.154c-12.745-43.01-64.403-45.698-64.403-45.698-5.366-26.88-25.326-38.044-40.85-40.702-101.97-17.474-148.022 25.092-185.904 25.917-61.72 1.345-71.36-15.223-71.36-15.223-9.22 26.593 3.932 48.577 3.932 48.577-20.2-.858-25.568-15.516-25.568-15.516 8.166 39.51 26.798 65.352 48.77 82.21 1.634 1.407 4.696 3.878 9.193 6.812 18.04 11.77 59.042 30.885 122.247 17.69 0 0 .51 71.887 8.05 89.605 2.186 5.14 6.746 8.166 12.536 9.752l.008-.19c.695-16.39 13.117-29.174 27.748-28.553 14.628.62 25.93 14.412 25.235 30.802l-.42 9.893c-.692 16.39-13.117 29.174-27.747 28.554-3.79-.16-7.356-1.214-10.55-2.96l-5.34 24.834 39.434 28.115 49.12-1.168 2.68-.064c29.918-22.775 51.225-45.886 66.165-68.514 15.665-23.725 24.318-46.915 28.49-68.628 9.693-50.454-4.763-92.927-11.465-115.544" fill="#373025"/><path d="M561.642 459.88l-1.446 11.945c-.53 4.4-4.523 7.532-8.913 7-4.39-.538-7.516-4.533-6.983-8.93l1.446-11.944c.532-4.398 4.522-7.53 8.91-6.996 4.392.532 7.52 4.53 6.986 8.927zm131.833 136.077l5.342-24.832c3.193 1.745 6.758 2.797 10.55 2.96 14.63.62 27.054-12.164 27.746-28.556l.42-9.894c.694-16.39-10.607-30.18-25.235-30.802-14.63-.62-27.053 12.162-27.747 28.552l-.007.192c-5.79-1.587-10.35-4.612-12.537-9.753-7.54-17.718-8.05-89.604-8.05-89.604-63.204 13.195-104.205-5.92-122.246-17.69-2.524 16.495-10.028 65.296-10.585 65.855 0 0-.51 2.805-1.274 7.185l-14.155 10.286c-11.238 8.905-15.864 10.313-14.088 16.803.13.47 1.86 3.27 2.236 3.58 7.944 6.567 11.14 6.732 19.742 8.686-.467 3.56-.818 6.684-.987 9.028-.547 7.648-.648 17.936.193 28.998-.18-4.24-.13-6.697-.13-6.697l5.938-1.094c17.43-2.255 30.703.51 34.38 17.79 1.557 12.074-11.306 23.7-28.738 25.956l-4.592.81c3.334 9.945 8.005 18.78 14.447 24.945 17.786 17.02 46.886 24.716 80.95 24.427v20.825l110.022-6.72v-13.44h46.963v-30.847l-49.12 1.167-39.435-28.115" fill="#f9d0a8"/><path d="M562.978 576.95c-3.677-17.28-16.95-20.045-34.38-17.79l-5.938 1.095s-.05 2.458.13 6.697a205.7 205.7 0 0 0 1.627 18.253c1.34 10.08 5.073 18.54 5.073 18.54l.158-.03 4.592-.81c17.432-2.255 30.295-13.88 28.738-25.956" fill="#cc616c"/><path d="M554.657 450.954c-4.39-.533-8.38 2.6-8.91 6.997l-1.447 11.945c-.533 4.398 2.592 8.393 6.983 8.93 4.39.533 8.382-2.6 8.913-7l1.446-11.944c.535-4.396-2.594-8.394-6.985-8.926" fill="#040606"/><path d="M786.055 645.688c-7.15-4.772-136.19 12.8-162.352 24.193-32.698 14.243-42.76 80.77-42.76 80.77s-2.857 75.14-2.857 83.208v166.138h86.75v.004h181.61c.19-21.37 1.644-312.88-60.39-354.313" fill="#388389" fill-rule="evenodd"/><path d="M557.727 395.595c-8.39 11.297-24.33 13.643-35.61 5.24-11.275-8.406-13.616-24.376-5.226-35.672l21.173-28.513c8.392-11.297 24.335-13.642 35.61-5.24 11.28 8.406 13.62 24.376 5.23 35.674l-21.176 28.51" fill="#f9d0a8" fill-rule="evenodd"/><path d="M578.835 377.45c1.177 3.194.165 6.51-2.26 7.408l-13.51 5.002c-2.425.898-5.347-.96-6.524-4.154-1.175-3.19-.167-6.507 2.26-7.403l13.508-5.003c2.428-.9 5.347.96 6.527 4.15" fill="#f9d0a8" fill-rule="evenodd"/><path d="M687.518 744.32c8.717-24.945-4.98-59.865-61.13-73.093-34.358-8.096-198.826-47.548-200.408-69.76-2.014-28.226 134.836-209.665 134.836-209.665l-40.248-32.255S320.445 569.36 341.455 629.69c20.126 57.797 243.97 138.327 263.89 142.07 22.576 4.24 63.346 26.447 82.173-27.44" fill="#388389" fill-rule="evenodd"/><path d="M956.21 949.842v-127.35c0-84.63-45.202-171.226-141.59-171.226l-1.527.125c-116.833 8.925-157.728 86.47-157.728 171.1v109.4c0 26.756-1.58 49.5 1.46 68.106h8.01v.004h290.937c1.175-13.185.438-29.65.438-50.158" fill="#c13e47" fill-rule="evenodd"/><path d="M942.41 1000c11.872-19.628 7.786-48.614 7.786-87.256v-82.45c0-79.838-36.08-161.975-115.863-161.975h-5.377c-96.71 8.42-127.79 82.136-127.79 161.972v30.883c0 71.605-2.45 113.925 7.364 138.825h233.88" fill="#28292a" fill-rule="evenodd"/><path d="M874.302 999.792v-63.02c0-21.694-17.6-39.29-39.307-39.29-21.704 0-39.3 17.596-39.3 39.29v63.02h78.607" fill="#3f4043" fill-rule="evenodd"/><path d="M885.216 999.996v-63.143c0-21.742-17.596-39.37-39.296-39.37-21.712 0-39.312 17.628-39.312 39.37v63.143h78.608" fill="#55595b" fill-rule="evenodd"/></svg>