<?xml version="1.0" encoding="UTF-8" standalone="no"?>
<svg
   xmlns:dc="http://purl.org/dc/elements/1.1/"
   xmlns:cc="http://creativecommons.org/ns#"
   xmlns:rdf="http://www.w3.org/1999/02/22-rdf-syntax-ns#"
   xmlns:svg="http://www.w3.org/2000/svg"
   xmlns="http://www.w3.org/2000/svg"
   viewBox="0 0 1000 1000"
   height="1000"
   width="1000"
   xml:space="preserve"
   version="1.1"
   id="svg2"><metadata
     id="metadata8"><rdf:RDF><cc:Work
         rdf:about=""><dc:format>image/svg+xml</dc:format><dc:type
           rdf:resource="http://purl.org/dc/dcmitype/StillImage" /><dc:title></dc:title></cc:Work></rdf:RDF></metadata><defs
     id="defs6"><clipPath
       id="clipPath98"
       clipPathUnits="userSpaceOnUse"><path
         id="path100"
         d="m 2682.87,3288.93 5.29,238.06 39.75,8.89 -5.04,-226.95 730.22,207.59 -0.65,-8.82 -1.3,-0.37 -2.6,1.93 -765.67,-220.33" /></clipPath></defs><g
     transform="matrix(1.25,0,0,-1.25,0,1000)"
     id="g10"><path
       d="m 793.21864,0.003125 1.475,275.413875 -221.017,-39.045 151.175,-236.368875 68.367,0"
       style="fill:#a1896f;fill-opacity:1;fill-rule:evenodd;stroke:none"
       id="path16" /><path
       d="m 589.78564,301.336 -21.667,0 -13.333,22.334"
       style="fill:#dda525;fill-opacity:1;fill-rule:evenodd;stroke:none"
       id="path18" /><path
       d="M 578.33664,429.105 183.89831,311.87835 188.43503,80.566459 796.67064,275.852 l 0,27.641 -218.334,125.612"
       style="fill:#837166;fill-opacity:1;fill-rule:evenodd;stroke:none"
       id="path82" /><path
       d="M 578.41964,456.541 0.84745753,320.07575 189.39581,114.09134 796.75164,303.287 578.41964,456.541"
       style="fill:#b49f83;fill-opacity:1;fill-rule:evenodd;stroke:none"
       id="path84" /><path
       d="m 16.999046,-0.63870489 171.886124,0 0,286.08671489 -171.886124,0 0,-286.08671489 z"
       style="fill:#b49f83;fill-opacity:1;fill-rule:evenodd;stroke:none"
       id="path86" /><path
       d="m 202.6501,-1.1953611 0,102.9998711 -14.667,-3.999896 0,-98.9999751 14.667,0"
       style="fill:#837166;fill-opacity:1;fill-rule:evenodd;stroke:none"
       id="path88" /><path
       d="m 781.83764,0.003125 14.666,0 0,294.323005 -14.666,0 0,-294.323005 z"
       style="fill:#837166;fill-opacity:1;fill-rule:evenodd;stroke:none"
       id="path90" /><path
       d="m 0.99726859,320.01729 0,-37 L 188.40648,80.122899 188.98948,114.8729 0.99726859,320.01729"
       style="fill:#685c55;fill-opacity:1;fill-rule:evenodd;stroke:none"
       id="path92" /><g
       transform="matrix(0.1,0,0,0.1,27.118644,0)"
       id="g94"><g
         id="g96"
         clip-path="url(#clipPath98)"><path
           d="m 2682.87,3288.93 770.219,0 0,246.949 -770.219,0 0,-246.949 z"
           style="fill:#968571;fill-opacity:1;fill-rule:nonzero;stroke:none"
           id="path102" /></g></g><path
       d="m 300.11564,362.86 -0.71,-31.967 76.957,21.877 2.182,29.453 -78.429,-19.363"
       style="fill:#55595b;fill-opacity:1;fill-rule:evenodd;stroke:none"
       id="path104" /><path
       d="m 332.78564,300.806 c -7.211,0 -15.106,3.087 -19.579,8.106 l -17.801,19.981 76.827,21.84 24.383,-18.193 c 7.001,-5.225 5.891,-11.577 -2.468,-14.115 l -55.177,-16.757 c -1.926,-0.585 -4.025,-0.862 -6.185,-0.862"
       style="fill:#968571;fill-opacity:1;fill-rule:nonzero;stroke:none"
       id="path106" /><path
       d="m 295.40564,328.893 76.567,22.033 0.26,-0.193 -76.827,-21.84"
       style="fill:#7d7060;fill-opacity:1;fill-rule:nonzero;stroke:none"
       id="path108" /><path
       d="m 375.97264,352.926 24.643,-18.386 c 7.001,-5.225 5.891,-11.577 -2.468,-14.115 l -55.177,-16.758 c -8.359,-2.537 -19.952,0.722 -25.764,7.245 l -17.801,19.981"
       style="fill:#6f7375;fill-opacity:1;fill-rule:nonzero;stroke:none"
       id="path110" /><path
       d="m 182.06664,354.775 -24.37,217.164 c -0.444,3.953 0.621,7.759 2.731,10.831 -0.72,-2.139 -0.997,-4.458 -0.731,-6.831 l 24.751,-220.553 -2.381,-0.611"
       style="fill:#7cb1af;fill-opacity:1;fill-rule:nonzero;stroke:none"
       id="path112" /><path
       d="m 197.23364,330.995 c -7.125,0 -13.078,5.167 -13.923,12.693 l -1.244,11.087 2.381,0.611 0.863,-7.698 c 0.845,-7.526 6.798,-12.693 13.922,-12.693 1.094,0 2.216,0.122 3.35,0.376 l 41.653,9.316 c 0.17,-1.116 0.365,-2.262 0.565,-3.426 l -44.218,-9.89 c -1.134,-0.254 -2.256,-0.376 -3.349,-0.376 m 49.461,10.69 c -0.174,1.145 -0.349,2.291 -0.517,3.437 l 49.836,11.147 -0.079,-3.57 -49.24,-11.014 m 131.018,29.305 0.268,3.613 106.714,23.869 c 4.832,1.081 9.083,4.346 11.8,8.561 -2.229,-6.07 -7.524,-11.157 -13.8,-12.561 l -104.982,-23.482"
       style="fill:#968571;fill-opacity:1;fill-rule:nonzero;stroke:none"
       id="path114" /><path
       d="m 295.93464,352.699 0.079,3.57 3.975,0.889 -0.079,-3.57 -3.975,-0.889"
       style="fill:#7d7060;fill-opacity:1;fill-rule:nonzero;stroke:none"
       id="path116" /><path
       d="m 299.90964,353.588 0.079,3.57 77.992,17.445 -0.268,-3.613 -77.803,-17.402"
       style="fill:#494b4d;fill-opacity:1;fill-rule:nonzero;stroke:none"
       id="path118" /><path
       d="m 159.69664,575.939 c -0.975,8.681 5.323,16.649 13.995,17.707 l 302.313,36.859 c 8.672,1.057 16.027,-5.22 16.346,-13.951 l 7.264,-198.742 c 0.319,-8.73 -6.395,-17.433 -14.92,-19.34 l -282.112,-63.101 c -8.525,-1.907 -16.297,3.635 -17.272,12.317 l -25.614,228.251"
       style="fill:#858989;fill-opacity:1;fill-rule:evenodd;stroke:none"
       id="path120" /><path
       d="m 183.97064,565.275 279.177,36.821 10.69,-180.862 -266.196,-53.187 -23.671,197.228"
       style="fill:#ffffff;fill-opacity:1;fill-rule:evenodd;stroke:none"
       id="path122" /><path
       d="m 316.75764,599.126 c 0.124,2.629 2.354,4.66 4.983,4.536 2.629,-0.123 4.66,-2.355 4.536,-4.984 -0.123,-2.629 -2.355,-4.659 -4.984,-4.535 -2.629,0.124 -4.659,2.354 -4.535,4.983"
       style="fill:#141515;fill-opacity:1;fill-rule:nonzero;stroke:none"
       id="path124" /><path
       d="m 244.15464,345.237 c 1.157,-7.993 3.862,-17.533 -0.099,-25.153 -2.129,-4.096 -5.81,-7.291 -9.321,-10.174 -3.241,-2.661 -6.655,-5.153 -10.027,-7.648 -13.336,-9.87 -29.568,-22.628 -29.617,-40.872 -0.012,-4.117 1.066,-8.128 2.665,-11.892 0.502,-1.184 2.224,-0.163 1.726,1.009 -8.524,20.077 8.395,36.583 23.1,47.692 6.742,5.094 14.114,9.804 19.793,16.11 5.293,5.879 6.162,12.587 5.304,20.202 -0.424,3.766 -1.053,7.508 -1.596,11.257 -0.184,1.273 -2.111,0.73 -1.928,-0.531"
       style="fill:#f1f5f6;fill-opacity:1;fill-rule:nonzero;stroke:none"
       id="path126" /><path
       d="m 216.18064,186.392 c -9.451,0 -18.163,6.182 -20.952,15.71 l -7.21,24.646 c -2.775,9.479 1.177,19.334 9.058,24.449 0.214,-0.572 0.44,-1.138 0.679,-1.699 0.158,-0.373 0.437,-0.527 0.729,-0.527 0.637,0 1.339,0.732 0.997,1.536 -0.243,0.573 -0.464,1.14 -0.667,1.707 1.037,0.543 2.129,1.009 3.274,1.388 l 2.474,-8.041 c -0.616,-0.52 -0.915,-1.288 -0.705,-2.011 l 3.066,-10.474 c 0.229,-0.788 0.998,-1.294 1.892,-1.335 l 1.551,-5.041 c -0.103,-0.224 -0.129,-0.484 -0.056,-0.737 l 0.597,-2.033 c 0.134,-0.463 0.558,-0.761 1.016,-0.761 0.099,0 0.199,0.014 0.298,0.043 0.562,0.164 0.884,0.754 0.72,1.313 l -0.594,2.03 c -0.077,0.263 -0.246,0.474 -0.461,0.606 l -1.534,4.984 c 0.811,0.507 1.241,1.398 0.997,2.229 l -3.062,10.468 c -0.241,0.825 -1.07,1.341 -2.013,1.341 -0.079,0 -0.158,-0.004 -0.238,-0.011 l -2.424,7.876 c 1.796,0.457 3.6,0.676 5.379,0.676 9.449,0 18.161,-6.182 20.947,-15.71 l 7.211,-24.644 c 3.39,-11.578 -3.251,-23.708 -14.827,-27.094 -2.047,-0.599 -4.112,-0.884 -6.142,-0.884"
       style="fill:#968571;fill-opacity:1;fill-rule:nonzero;stroke:none"
       id="path128" /><path
       d="m 198.48464,248.971 c -0.292,0 -0.571,0.154 -0.729,0.527 -0.239,0.561 -0.465,1.127 -0.679,1.699 0.56,0.364 1.14,0.703 1.738,1.017 0.203,-0.567 0.424,-1.134 0.667,-1.707 0.342,-0.804 -0.36,-1.536 -0.997,-1.536"
       style="fill:#c8cccc;fill-opacity:1;fill-rule:nonzero;stroke:none"
       id="path130" /><path
       d="m 202.24664,253.654 c 0.198,0.064 0.399,0.126 0.6,0.185 l 0,0 -0.6,-0.185"
       style="fill:#968571;fill-opacity:1;fill-rule:nonzero;stroke:none"
       id="path132" /><path
       d="m 210.36664,226.7 -1.551,5.041 c 0.04,-0.002 0.08,-0.003 0.12,-0.003 0.245,0 0.499,0.035 0.752,0.108 0.242,0.072 0.465,0.174 0.665,0.299 l 1.534,-4.984 c -0.164,0.102 -0.356,0.158 -0.553,0.158 -0.1,0 -0.201,-0.014 -0.301,-0.044 -0.307,-0.088 -0.542,-0.305 -0.666,-0.575 m -5.804,18.861 -2.474,8.041 -0.001,0.003 0.159,0.049 0.6,0.185 0.759,0.233 0.007,-0.024 2.424,-7.876 c -0.17,-0.016 -0.342,-0.048 -0.514,-0.098 -0.368,-0.109 -0.694,-0.287 -0.96,-0.513"
       style="fill:#968571;fill-opacity:1;fill-rule:nonzero;stroke:none"
       id="path134" /><path
       d="m 211.92364,223.169 c -0.458,0 -0.882,0.298 -1.016,0.761 l -0.597,2.033 c -0.073,0.253 -0.047,0.513 0.056,0.737 0.124,0.27 0.359,0.487 0.666,0.575 0.1,0.03 0.201,0.044 0.301,0.044 0.197,0 0.389,-0.056 0.553,-0.158 0.215,-0.132 0.384,-0.343 0.461,-0.606 l 0.594,-2.03 c 0.164,-0.559 -0.158,-1.149 -0.72,-1.313 -0.099,-0.029 -0.199,-0.043 -0.298,-0.043"
       style="fill:#968571;fill-opacity:1;fill-rule:nonzero;stroke:none"
       id="path136" /><path
       d="m 208.93564,231.738 c -0.04,0 -0.08,0.001 -0.12,0.003 -0.894,0.041 -1.663,0.547 -1.892,1.335 l -3.066,10.474 c -0.21,0.723 0.089,1.491 0.705,2.011 0.266,0.226 0.592,0.404 0.96,0.513 0.172,0.05 0.344,0.082 0.514,0.098 0.08,0.007 0.159,0.011 0.238,0.011 0.943,0 1.772,-0.516 2.013,-1.341 l 3.062,-10.468 c 0.244,-0.831 -0.186,-1.722 -0.997,-2.229 -0.2,-0.125 -0.423,-0.227 -0.665,-0.299 -0.253,-0.073 -0.507,-0.108 -0.752,-0.108"
       style="fill:#968571;fill-opacity:1;fill-rule:nonzero;stroke:none"
       id="path138" /><path
       d="m 233.14964,216.37 c 3.39,-11.578 -3.251,-23.708 -14.827,-27.094 -11.576,-3.387 -23.706,3.252 -27.094,14.826 l -7.21,24.646 c -3.388,11.573 3.25,23.707 14.828,27.09 11.574,3.389 23.707,-3.248 27.092,-14.824 l 7.211,-24.644"
       style="fill:#6f7375;fill-opacity:1;fill-rule:nonzero;stroke:none"
       id="path140" /><path
       d="m 198.08764,255.605 8.407,-27.322 1.518,0.467 -8.407,27.322"
       style="fill:#3f4043;fill-opacity:1;fill-rule:nonzero;stroke:none"
       id="path142" /><path
       d="m 208.94164,226.525 c 0.164,-0.559 -0.158,-1.149 -0.719,-1.313 -0.56,-0.164 -1.152,0.156 -1.315,0.718 l -0.597,2.032 c -0.161,0.559 0.16,1.152 0.722,1.313 0.561,0.167 1.149,-0.155 1.315,-0.72 l 0.594,-2.03"
       style="fill:#ed333d;fill-opacity:1;fill-rule:nonzero;stroke:none"
       id="path144" /><path
       d="m 207.34964,236.374 c 0.304,-1.037 -0.44,-2.165 -1.662,-2.528 -1.225,-0.355 -2.462,0.193 -2.764,1.23 l -3.066,10.473 c -0.301,1.037 0.445,2.165 1.665,2.525 1.224,0.356 2.461,-0.193 2.765,-1.232 l 3.062,-10.468"
       style="fill:#3f4043;fill-opacity:1;fill-rule:nonzero;stroke:none"
       id="path146" /><path
       d="m 337.11864,185.752 -59.875,60.751 0,7.625 199.302,58.072 68.677,-55.47 -208.104,-70.978"
       style="fill:#968571;fill-opacity:1;fill-rule:nonzero;stroke:none"
       id="path148" /><path
       d="m 339.11864,189.753 208.104,70.977 -68.677,55.47 -199.302,-58.072 0,-7.625 59.875,-60.75"
       style="fill:#55595b;fill-opacity:1;fill-rule:evenodd;stroke:none"
       id="path150" /><path
       d="m 340.55164,197.554 208.671,68.676 -68.677,55.47 -201.407,-63.394 61.413,-60.752"
       style="fill:#6f7375;fill-opacity:1;fill-rule:evenodd;stroke:none"
       id="path152" /><path
       d="m 313.40564,250.746 18.019,5.474 -6.745,5.452 -17.292,-5.557 6.018,-5.369"
       style="fill:#55595b;fill-opacity:1;fill-rule:evenodd;stroke:none"
       id="path154" /><path
       d="m 333.57064,257.119 10.552,3.34 -7.501,5.249 -9.795,-3.091 6.744,-5.498"
       style="fill:#55595b;fill-opacity:1;fill-rule:evenodd;stroke:none"
       id="path156" /><path
       d="m 345.78664,261.08 10.552,3.341 -7.501,5.249 -9.793,-3.092 6.742,-5.498"
       style="fill:#55595b;fill-opacity:1;fill-rule:evenodd;stroke:none"
       id="path158" /><path
       d="m 358.33264,264.877 10.553,3.341 -7.501,5.249 -9.794,-3.092 6.742,-5.498"
       style="fill:#55595b;fill-opacity:1;fill-rule:evenodd;stroke:none"
       id="path160" /><path
       d="m 370.38464,268.84 10.552,3.339 -7.501,5.25 -9.794,-3.091 6.743,-5.498"
       style="fill:#55595b;fill-opacity:1;fill-rule:evenodd;stroke:none"
       id="path162" /><path
       d="m 382.60164,272.966 10.552,3.341 -7.502,5.248 -9.794,-3.091 6.744,-5.498"
       style="fill:#55595b;fill-opacity:1;fill-rule:evenodd;stroke:none"
       id="path164" /><path
       d="m 394.81764,276.928 10.552,3.341 -7.501,5.249 -9.794,-3.092 6.743,-5.498"
       style="fill:#55595b;fill-opacity:1;fill-rule:evenodd;stroke:none"
       id="path166" /><path
       d="m 407.36464,280.726 10.552,3.34 -7.502,5.249 -9.793,-3.091 6.743,-5.498"
       style="fill:#55595b;fill-opacity:1;fill-rule:evenodd;stroke:none"
       id="path168" /><path
       d="m 419.41564,284.687 10.552,3.341 -7.501,5.249 -9.794,-3.092 6.743,-5.498"
       style="fill:#55595b;fill-opacity:1;fill-rule:evenodd;stroke:none"
       id="path170" /><path
       d="m 431.63264,288.98 10.551,3.34 -7.502,5.249 -9.792,-3.091 6.743,-5.498"
       style="fill:#55595b;fill-opacity:1;fill-rule:evenodd;stroke:none"
       id="path172" /><path
       d="m 443.84764,292.941 10.553,3.341 -7.501,5.25 -9.794,-3.092 6.742,-5.499"
       style="fill:#55595b;fill-opacity:1;fill-rule:evenodd;stroke:none"
       id="path174" /><path
       d="m 456.39464,296.739 10.552,3.342 -7.501,5.249 -9.793,-3.093 6.742,-5.498"
       style="fill:#55595b;fill-opacity:1;fill-rule:evenodd;stroke:none"
       id="path176" /><path
       d="m 468.44664,300.702 10.553,3.34 -7.502,5.249 -9.794,-3.091 6.743,-5.498"
       style="fill:#55595b;fill-opacity:1;fill-rule:evenodd;stroke:none"
       id="path178" /><path
       d="m 322.42864,242.162 18.02,5.473 -6.745,5.453 -17.292,-5.558 6.017,-5.368"
       style="fill:#55595b;fill-opacity:1;fill-rule:evenodd;stroke:none"
       id="path180" /><path
       d="m 342.59464,248.534 10.552,3.34 -7.501,5.249 -9.794,-3.091 6.743,-5.498"
       style="fill:#55595b;fill-opacity:1;fill-rule:evenodd;stroke:none"
       id="path182" /><path
       d="m 354.81064,252.495 10.552,3.341 -7.501,5.25 -9.793,-3.093 6.742,-5.498"
       style="fill:#55595b;fill-opacity:1;fill-rule:evenodd;stroke:none"
       id="path184" /><path
       d="m 367.35764,256.292 10.551,3.341 -7.5,5.25 -9.794,-3.093 6.743,-5.498"
       style="fill:#55595b;fill-opacity:1;fill-rule:evenodd;stroke:none"
       id="path186" /><path
       d="m 379.40864,260.255 10.552,3.34 -7.501,5.249 -9.793,-3.091 6.742,-5.498"
       style="fill:#55595b;fill-opacity:1;fill-rule:evenodd;stroke:none"
       id="path188" /><path
       d="m 391.62464,264.381 10.553,3.341 -7.501,5.25 -9.794,-3.091 6.742,-5.5"
       style="fill:#55595b;fill-opacity:1;fill-rule:evenodd;stroke:none"
       id="path190" /><path
       d="m 403.84164,268.344 10.552,3.34 -7.501,5.249 -9.793,-3.091 6.742,-5.498"
       style="fill:#55595b;fill-opacity:1;fill-rule:evenodd;stroke:none"
       id="path192" /><path
       d="m 416.38864,272.141 10.552,3.34 -7.501,5.249 -9.794,-3.091 6.743,-5.498"
       style="fill:#55595b;fill-opacity:1;fill-rule:evenodd;stroke:none"
       id="path194" /><path
       d="m 428.43964,276.103 10.553,3.341 -7.502,5.25 -9.793,-3.094 6.742,-5.497"
       style="fill:#55595b;fill-opacity:1;fill-rule:evenodd;stroke:none"
       id="path196" /><path
       d="m 440.65664,280.395 10.552,3.34 -7.501,5.249 -9.794,-3.091 6.743,-5.498"
       style="fill:#55595b;fill-opacity:1;fill-rule:evenodd;stroke:none"
       id="path198" /><path
       d="m 452.87264,284.357 10.552,3.342 -7.5,5.249 -9.794,-3.093 6.742,-5.498"
       style="fill:#55595b;fill-opacity:1;fill-rule:evenodd;stroke:none"
       id="path200" /><path
       d="m 465.41964,288.155 10.551,3.341 -7.5,5.249 -9.794,-3.093 6.743,-5.497"
       style="fill:#55595b;fill-opacity:1;fill-rule:evenodd;stroke:none"
       id="path202" /><path
       d="m 477.47064,292.117 10.552,3.34 -7.501,5.249 -9.794,-3.091 6.743,-5.498"
       style="fill:#55595b;fill-opacity:1;fill-rule:evenodd;stroke:none"
       id="path204" /><path
       d="m 331.01364,233.136 18.02,5.476 -6.746,5.453 -17.292,-5.56 6.018,-5.369"
       style="fill:#55595b;fill-opacity:1;fill-rule:evenodd;stroke:none"
       id="path206" /><path
       d="m 351.17864,239.509 10.553,3.341 -7.502,5.248 -9.793,-3.091 6.742,-5.498"
       style="fill:#55595b;fill-opacity:1;fill-rule:evenodd;stroke:none"
       id="path208" /><path
       d="m 363.39564,243.471 10.552,3.34 -7.501,5.249 -9.794,-3.091 6.743,-5.498"
       style="fill:#55595b;fill-opacity:1;fill-rule:evenodd;stroke:none"
       id="path210" /><path
       d="m 375.94264,247.268 10.551,3.34 -7.501,5.25 -9.793,-3.091 6.743,-5.499"
       style="fill:#55595b;fill-opacity:1;fill-rule:evenodd;stroke:none"
       id="path212" /><path
       d="m 387.99364,251.23 10.552,3.341 -7.501,5.249 -9.794,-3.092 6.743,-5.498"
       style="fill:#55595b;fill-opacity:1;fill-rule:evenodd;stroke:none"
       id="path214" /><path
       d="m 400.20964,255.357 10.553,3.341 -7.501,5.25 -9.794,-3.092 6.742,-5.499"
       style="fill:#55595b;fill-opacity:1;fill-rule:evenodd;stroke:none"
       id="path216" /><path
       d="m 412.42664,259.32 10.552,3.34 -7.501,5.249 -9.795,-3.091 6.744,-5.498"
       style="fill:#55595b;fill-opacity:1;fill-rule:evenodd;stroke:none"
       id="path218" /><path
       d="m 424.97264,263.117 10.552,3.34 -7.501,5.249 -9.793,-3.091 6.742,-5.498"
       style="fill:#55595b;fill-opacity:1;fill-rule:evenodd;stroke:none"
       id="path220" /><path
       d="m 437.02364,267.078 10.553,3.342 -7.502,5.25 -9.793,-3.093 6.742,-5.499"
       style="fill:#55595b;fill-opacity:1;fill-rule:evenodd;stroke:none"
       id="path222" /><path
       d="m 449.24064,271.371 10.552,3.34 -7.5,5.25 -9.794,-3.091 6.742,-5.499"
       style="fill:#55595b;fill-opacity:1;fill-rule:evenodd;stroke:none"
       id="path224" /><path
       d="m 461.45764,275.334 10.553,3.339 -7.502,5.249 -9.794,-3.09 6.743,-5.498"
       style="fill:#55595b;fill-opacity:1;fill-rule:evenodd;stroke:none"
       id="path226" /><path
       d="m 474.00364,279.13 10.553,3.34 -7.502,5.249 -9.793,-3.091 6.742,-5.498"
       style="fill:#55595b;fill-opacity:1;fill-rule:evenodd;stroke:none"
       id="path228" /><path
       d="m 486.05464,283.091 10.552,3.341 -7.5,5.249 -9.794,-3.092 6.742,-5.498"
       style="fill:#55595b;fill-opacity:1;fill-rule:evenodd;stroke:none"
       id="path230" /><path
       d="m 341.79964,224.332 18.02,5.475 -6.746,5.452 -17.292,-5.559 6.018,-5.368"
       style="fill:#55595b;fill-opacity:1;fill-rule:evenodd;stroke:none"
       id="path232" /><path
       d="m 361.96464,230.704 10.551,3.341 -7.5,5.248 -9.794,-3.091 6.743,-5.498"
       style="fill:#55595b;fill-opacity:1;fill-rule:evenodd;stroke:none"
       id="path234" /><path
       d="m 374.18164,234.666 10.552,3.34 -7.502,5.25 -9.794,-3.091 6.744,-5.499"
       style="fill:#55595b;fill-opacity:1;fill-rule:evenodd;stroke:none"
       id="path236" /><path
       d="m 386.72764,238.462 10.552,3.341 -7.501,5.25 -9.793,-3.092 6.742,-5.499"
       style="fill:#55595b;fill-opacity:1;fill-rule:evenodd;stroke:none"
       id="path238" /><path
       d="m 398.77864,242.425 10.553,3.341 -7.502,5.248 -9.793,-3.091 6.742,-5.498"
       style="fill:#55595b;fill-opacity:1;fill-rule:evenodd;stroke:none"
       id="path240" /><path
       d="m 410.99564,246.553 10.552,3.34 -7.501,5.249 -9.794,-3.091 6.743,-5.498"
       style="fill:#55595b;fill-opacity:1;fill-rule:evenodd;stroke:none"
       id="path242" /><path
       d="m 423.21264,250.514 10.551,3.34 -7.501,5.249 -9.794,-3.091 6.744,-5.498"
       style="fill:#55595b;fill-opacity:1;fill-rule:evenodd;stroke:none"
       id="path244" /><path
       d="m 435.75864,254.311 10.552,3.341 -7.501,5.248 -9.794,-3.091 6.743,-5.498"
       style="fill:#55595b;fill-opacity:1;fill-rule:evenodd;stroke:none"
       id="path246" /><path
       d="m 447.80964,258.275 10.552,3.339 -7.501,5.25 -9.793,-3.092 6.742,-5.497"
       style="fill:#55595b;fill-opacity:1;fill-rule:evenodd;stroke:none"
       id="path248" /><path
       d="m 460.02664,262.565 10.552,3.341 -7.501,5.25 -9.794,-3.091 6.743,-5.5"
       style="fill:#55595b;fill-opacity:1;fill-rule:evenodd;stroke:none"
       id="path250" /><path
       d="m 472.24264,266.528 10.553,3.341 -7.501,5.249 -9.794,-3.092 6.742,-5.498"
       style="fill:#55595b;fill-opacity:1;fill-rule:evenodd;stroke:none"
       id="path252" /><path
       d="m 484.79064,270.325 10.551,3.341 -7.5,5.249 -9.795,-3.092 6.744,-5.498"
       style="fill:#55595b;fill-opacity:1;fill-rule:evenodd;stroke:none"
       id="path254" /><path
       d="m 496.84064,274.287 10.551,3.341 -7.501,5.25 -9.793,-3.092 6.743,-5.499"
       style="fill:#55595b;fill-opacity:1;fill-rule:evenodd;stroke:none"
       id="path256" /><path
       d="m 351.15564,214.976 18.018,5.474 -6.745,5.453 -17.292,-5.559 6.019,-5.368"
       style="fill:#55595b;fill-opacity:1;fill-rule:evenodd;stroke:none"
       id="path258" /><path
       d="m 371.31964,221.349 10.552,3.339 -7.501,5.25 -9.794,-3.092 6.743,-5.497"
       style="fill:#55595b;fill-opacity:1;fill-rule:evenodd;stroke:none"
       id="path260" /><path
       d="m 383.53564,225.31 10.553,3.341 -7.502,5.249 -9.793,-3.092 6.742,-5.498"
       style="fill:#55595b;fill-opacity:1;fill-rule:evenodd;stroke:none"
       id="path262" /><path
       d="m 396.08264,229.107 10.553,3.341 -7.502,5.249 -9.793,-3.092 6.742,-5.498"
       style="fill:#55595b;fill-opacity:1;fill-rule:evenodd;stroke:none"
       id="path264" /><path
       d="m 408.40864,233.069 59.371,19.292 -6.385,5.284 -59.729,-19.077 6.743,-5.499"
       style="fill:#55595b;fill-opacity:1;fill-rule:evenodd;stroke:none"
       id="path266" /><path
       d="m 469.38264,253.211 10.55,3.339 -7.5,5.249 -9.794,-3.091 6.744,-5.497"
       style="fill:#55595b;fill-opacity:1;fill-rule:evenodd;stroke:none"
       id="path268" /><path
       d="m 481.59764,257.171 10.552,3.341 -7.501,5.25 -9.793,-3.091 6.742,-5.5"
       style="fill:#55595b;fill-opacity:1;fill-rule:evenodd;stroke:none"
       id="path270" /><path
       d="m 494.14464,260.968 10.552,3.341 -7.501,5.25 -9.794,-3.091 6.743,-5.5"
       style="fill:#55595b;fill-opacity:1;fill-rule:evenodd;stroke:none"
       id="path272" /><path
       d="m 506.19564,264.931 10.554,3.341 -7.502,5.249 -9.794,-3.092 6.742,-5.498"
       style="fill:#55595b;fill-opacity:1;fill-rule:evenodd;stroke:none"
       id="path274" /><path
       d="m 241.95364,434.985 -8.196,53.165 2.334,0.36 7.932,-51.454 135.111,20.827 0.264,-1.71 -137.445,-21.188"
       style="fill:#d4d4d2;fill-opacity:1;fill-rule:nonzero;stroke:none"
       id="path276" /><path
       d="m 233.67264,488.137 -1.479,9.59 2.334,0.36 1.215,-7.879 0.085,0.012 0.264,-1.71 -2.334,-0.36 -0.085,-0.013"
       style="fill:#d4d4d2;fill-opacity:1;fill-rule:nonzero;stroke:none"
       id="path278" /><path
       d="m 244.02364,437.056 137.445,21.187 -8.359,54.228 -137.446,-21.188 8.36,-54.227"
       style="fill:#dcdcd9;fill-opacity:1;fill-rule:nonzero;stroke:none"
       id="path280" /><path
       d="m 372.00764,521.031 -137.744,-21.233 1.479,-9.59 0.085,0.012 137.446,21.188 0.212,0.033 -1.478,9.59"
       style="fill:#92d3ce;fill-opacity:1;fill-rule:nonzero;stroke:none"
       id="path282" /><path
       d="m 372.82964,515.701 -11.618,-1.791 -0.821,5.33 11.617,1.791 0.822,-5.33"
       style="fill:#ed333d;fill-opacity:1;fill-rule:evenodd;stroke:none"
       id="path284" /><path
       d="m 365.76064,515.677 -0.765,-0.118 1.407,1.921 -1.803,1.34 0.794,0.122 1.377,-1.059 0.985,1.424 0.755,0.116 -1.313,-1.82 1.89,-1.414 -0.787,-0.121 -1.458,1.141 -1.082,-1.532"
       style="fill:#eaeae9;fill-opacity:1;fill-rule:nonzero;stroke:none"
       id="path286" /><path
       d="m 255.12764,450.211 c -0.995,0 -1.471,0.747 -1.066,1.789 l 0.236,0.606 4.172,0.643 0.234,-1.514 28.899,4.455 c 0.039,-0.589 -0.398,-1.06 -1.224,-1.187 l -13.218,-2.038 c -1.228,-0.19 -3.238,-0.499 -4.466,-0.689 l -13.218,-2.037 c -0.122,-0.019 -0.239,-0.028 -0.349,-0.028"
       style="fill:#b6b9b6;fill-opacity:1;fill-rule:nonzero;stroke:none"
       id="path288" /><path
       d="m 262.28164,483.214 c 0.45,1.158 1.455,1.313 2.232,0.344 l 8.374,-10.429 c 0.778,-0.969 2.052,-2.554 2.83,-3.523 l 8.373,-10.427 c 0.778,-0.969 0.41,-1.917 -0.818,-2.106 l -13.218,-2.038 c -1.228,-0.189 -3.238,-0.499 -4.466,-0.688 l -13.218,-2.038 c -1.228,-0.189 -1.865,0.604 -1.415,1.762 l 4.846,12.465 c 0.45,1.158 1.186,3.053 1.636,4.212 l 4.844,12.466"
       style="fill:#e3c929;fill-opacity:1;fill-rule:evenodd;stroke:none"
       id="path290" /><path
       d="m 263.14964,475.694 c 0.201,0.064 0.4,0.118 0.595,0.165 0.195,0.046 0.397,0.084 0.602,0.117 0.222,0.034 0.444,0.06 0.669,0.079 0.224,0.018 0.45,0.028 0.676,0.031 l 1.7,-11.973 c -0.354,-0.119 -0.722,-0.208 -1.102,-0.267 -0.427,-0.066 -0.805,-0.093 -1.131,-0.078 l -2.009,11.926 m 2.538,-17.098 c -0.066,0.217 -0.123,0.431 -0.171,0.642 -0.05,0.212 -0.09,0.428 -0.125,0.651 -0.034,0.22 -0.061,0.447 -0.081,0.68 -0.019,0.231 -0.03,0.461 -0.034,0.689 0.219,0.065 0.432,0.123 0.644,0.17 0.211,0.05 0.427,0.092 0.65,0.126 0.221,0.034 0.448,0.06 0.68,0.079 0.233,0.021 0.461,0.032 0.688,0.035 0.066,-0.218 0.124,-0.436 0.174,-0.655 0.05,-0.219 0.093,-0.44 0.127,-0.662 0.034,-0.221 0.06,-0.445 0.078,-0.668 0.019,-0.225 0.028,-0.45 0.032,-0.677 -0.218,-0.065 -0.436,-0.124 -0.654,-0.174 -0.221,-0.049 -0.441,-0.091 -0.662,-0.125 -0.222,-0.035 -0.445,-0.061 -0.669,-0.08 -0.224,-0.019 -0.45,-0.028 -0.677,-0.031"
       style="fill:#28292a;fill-opacity:1;fill-rule:nonzero;stroke:none"
       id="path292" /><path
       d="m 291.76364,488.248 48.947,7.545 -0.068,0.444 -48.947,-7.545 0.068,-0.444"
       style="fill:#28292a;fill-opacity:1;fill-rule:nonzero;stroke:none"
       id="path294" /><path
       d="m 292.51764,483.363 71.622,11.041 -0.068,0.443 -71.623,-11.04 0.069,-0.444"
       style="fill:#28292a;fill-opacity:1;fill-rule:nonzero;stroke:none"
       id="path296" /><path
       d="m 293.18564,479.021 71.623,11.041 -0.068,0.444 -71.623,-11.041 0.068,-0.444"
       style="fill:#28292a;fill-opacity:1;fill-rule:nonzero;stroke:none"
       id="path298" /><path
       d="m 293.85664,474.679 71.621,11.041 -0.068,0.443 -71.622,-11.041 0.069,-0.443"
       style="fill:#28292a;fill-opacity:1;fill-rule:nonzero;stroke:none"
       id="path300" /><path
       d="m 294.52564,470.336 71.622,11.041 -0.069,0.444 -71.621,-11.041 0.068,-0.444"
       style="fill:#28292a;fill-opacity:1;fill-rule:nonzero;stroke:none"
       id="path302" /><path
       d="m 295.19564,465.995 71.621,11.04 -0.068,0.443 -71.622,-11.04 0.069,-0.443"
       style="fill:#28292a;fill-opacity:1;fill-rule:nonzero;stroke:none"
       id="path304" /><path
       d="m 317.31764,456.803 -19.819,-2.927 -1.096,7.425 19.819,2.927 1.096,-7.425"
       style="fill:#abb2b0;fill-opacity:1;fill-rule:evenodd;stroke:none"
       id="path306" /><path
       d="m 340.78464,460.254 -19.82,-2.927 -1.096,7.425 19.819,2.927 1.097,-7.425"
       style="fill:#abb2b0;fill-opacity:1;fill-rule:evenodd;stroke:none"
       id="path308" /><path
       d="m 379.59964,470.372 -0.264,1.71 16.549,2.551 0.264,-1.71 -16.549,-2.551 m -128.701,31.99 -0.391,2.538 2.334,0.36 0.391,-2.538 -2.334,-0.36"
       style="fill:#d4d4d2;fill-opacity:1;fill-rule:nonzero;stroke:none"
       id="path310" /><path
       d="m 287.60264,456.19 c -0.02,0.287 -0.152,0.601 -0.406,0.918 l -0.551,0.686 10.046,1.549 0.253,-1.713 -9.342,-1.44 m 29.142,4.493 -0.253,1.712 3.642,0.561 0.253,-1.712 -3.642,-0.561 m 23.442,3.613 -0.252,1.713 39.401,6.073 0.264,-1.71 -39.413,-6.076 m -83.941,3.383 -3.868,25.093 2.334,0.359 3.244,-21.05 -0.518,-1.333 c -0.321,-0.827 -0.788,-2.028 -1.192,-3.069"
       style="fill:#b6b9b6;fill-opacity:1;fill-rule:nonzero;stroke:none"
       id="path312" /><path
       d="m 252.37764,492.772 -1.479,9.59 2.334,0.36 1.479,-9.591 -2.334,-0.359"
       style="fill:#7cb1af;fill-opacity:1;fill-rule:nonzero;stroke:none"
       id="path314" /><path
       d="m 258.70364,451.735 -0.234,1.514 7.119,1.098 c 1.228,0.189 3.238,0.499 4.466,0.688 l 13.218,2.038 c 0.35,0.054 0.63,0.169 0.834,0.33 l 2.539,0.391 0.551,-0.686 c 0.254,-0.317 0.386,-0.631 0.406,-0.918 l -28.899,-4.455"
       style="fill:#999b9b;fill-opacity:1;fill-rule:nonzero;stroke:none"
       id="path316" /><path
       d="m 258.46964,453.249 -2.224,14.43 c 0.404,1.041 0.871,2.242 1.192,3.069 l 0.518,1.333 2.818,-18.275 23.333,3.597 c -0.204,-0.161 -0.484,-0.276 -0.834,-0.33 l -13.218,-2.038 c -1.228,-0.189 -3.238,-0.499 -4.466,-0.688 l -7.119,-1.098"
       style="fill:#beaa26;fill-opacity:1;fill-rule:nonzero;stroke:none"
       id="path318" /><path
       d="m 296.94464,457.63 -0.253,1.713 19.8,3.052 0.253,-1.712 -19.8,-3.053"
       style="fill:#909595;fill-opacity:1;fill-rule:nonzero;stroke:none"
       id="path320" /><path
       d="m 320.38664,461.244 -0.253,1.712 19.801,3.053 0.252,-1.713 -19.8,-3.052"
       style="fill:#909595;fill-opacity:1;fill-rule:nonzero;stroke:none"
       id="path322" /><path
       d="m 250.42264,504.887 -1.479,9.59 2.334,0.36 1.215,-7.879 0.085,0.012 0.264,-1.71 -2.334,-0.36 -0.085,-0.013"
       style="fill:#d4d4d2;fill-opacity:1;fill-rule:nonzero;stroke:none"
       id="path324" /><path
       d="m 260.77364,453.806 137.445,21.187 -8.359,54.228 -137.446,-21.188 8.36,-54.227"
       style="fill:#dcdcd9;fill-opacity:1;fill-rule:nonzero;stroke:none"
       id="path326" /><path
       d="m 388.75764,537.781 -137.744,-21.233 1.479,-9.59 0.085,0.012 137.446,21.188 0.212,0.033 -1.478,9.59"
       style="fill:#92d3ce;fill-opacity:1;fill-rule:nonzero;stroke:none"
       id="path328" /><path
       d="m 389.57964,532.451 -11.618,-1.791 -0.821,5.33 11.617,1.791 0.822,-5.33"
       style="fill:#ed333d;fill-opacity:1;fill-rule:evenodd;stroke:none"
       id="path330" /><path
       d="m 382.51064,532.427 -0.765,-0.118 1.407,1.921 -1.803,1.34 0.794,0.122 1.377,-1.059 0.985,1.424 0.755,0.116 -1.314,-1.82 1.891,-1.413 -0.787,-0.122 -1.458,1.141 -1.082,-1.532"
       style="fill:#eaeae9;fill-opacity:1;fill-rule:nonzero;stroke:none"
       id="path332" /><path
       d="m 271.87764,466.961 c -0.995,0 -1.471,0.747 -1.066,1.789 l 0.236,0.606 1.635,0.252 0.384,-2.49 -0.84,-0.129 c -0.122,-0.019 -0.239,-0.028 -0.349,-0.028"
       style="fill:#b6b9b6;fill-opacity:1;fill-rule:nonzero;stroke:none"
       id="path334" /><path
       d="m 279.03164,499.964 c 0.45,1.158 1.455,1.313 2.232,0.344 l 8.375,-10.429 c 0.777,-0.969 2.051,-2.554 2.829,-3.523 l 8.373,-10.427 c 0.778,-0.969 0.41,-1.917 -0.818,-2.106 l -13.218,-2.038 c -1.228,-0.189 -3.238,-0.499 -4.466,-0.688 l -13.218,-2.038 c -1.228,-0.189 -1.865,0.604 -1.415,1.762 l 4.846,12.465 c 0.45,1.158 1.186,3.053 1.636,4.212 l 4.844,12.466"
       style="fill:#e3c929;fill-opacity:1;fill-rule:evenodd;stroke:none"
       id="path336" /><path
       d="m 279.89964,492.444 c 0.201,0.064 0.4,0.118 0.595,0.165 0.195,0.046 0.397,0.084 0.602,0.117 0.222,0.034 0.444,0.06 0.669,0.079 0.224,0.018 0.45,0.028 0.676,0.031 l 1.7,-11.973 c -0.354,-0.119 -0.722,-0.209 -1.102,-0.267 -0.427,-0.066 -0.805,-0.093 -1.131,-0.078 l -2.009,11.926 m 2.538,-17.098 c -0.066,0.217 -0.123,0.431 -0.171,0.642 -0.05,0.212 -0.09,0.428 -0.125,0.651 -0.034,0.22 -0.061,0.447 -0.081,0.68 -0.019,0.231 -0.03,0.461 -0.034,0.688 0.219,0.066 0.432,0.124 0.644,0.171 0.211,0.05 0.427,0.092 0.65,0.126 0.221,0.034 0.448,0.06 0.68,0.079 0.233,0.021 0.461,0.032 0.688,0.035 0.066,-0.218 0.124,-0.436 0.174,-0.655 0.05,-0.219 0.093,-0.44 0.127,-0.662 0.034,-0.221 0.06,-0.445 0.078,-0.668 0.019,-0.225 0.028,-0.45 0.032,-0.677 -0.218,-0.065 -0.436,-0.124 -0.654,-0.174 -0.221,-0.049 -0.441,-0.091 -0.662,-0.125 -0.222,-0.035 -0.445,-0.061 -0.669,-0.08 -0.224,-0.019 -0.45,-0.028 -0.677,-0.031"
       style="fill:#28292a;fill-opacity:1;fill-rule:nonzero;stroke:none"
       id="path338" /><path
       d="m 308.51364,504.998 48.947,7.545 -0.068,0.444 -48.947,-7.545 0.068,-0.444"
       style="fill:#28292a;fill-opacity:1;fill-rule:nonzero;stroke:none"
       id="path340" /><path
       d="m 309.26764,500.113 71.622,11.041 -0.068,0.443 -71.623,-11.04 0.069,-0.444"
       style="fill:#28292a;fill-opacity:1;fill-rule:nonzero;stroke:none"
       id="path342" /><path
       d="m 309.93564,495.771 71.623,11.041 -0.068,0.444 -71.623,-11.041 0.068,-0.444"
       style="fill:#28292a;fill-opacity:1;fill-rule:nonzero;stroke:none"
       id="path344" /><path
       d="m 310.60664,491.429 71.621,11.041 -0.068,0.443 -71.622,-11.041 0.069,-0.443"
       style="fill:#28292a;fill-opacity:1;fill-rule:nonzero;stroke:none"
       id="path346" /><path
       d="m 311.27564,487.086 71.622,11.041 -0.069,0.444 -71.621,-11.041 0.068,-0.444"
       style="fill:#28292a;fill-opacity:1;fill-rule:nonzero;stroke:none"
       id="path348" /><path
       d="m 311.94564,482.745 71.621,11.04 -0.068,0.443 -71.622,-11.04 0.069,-0.443"
       style="fill:#28292a;fill-opacity:1;fill-rule:nonzero;stroke:none"
       id="path350" /><path
       d="m 334.06764,473.553 -19.819,-2.927 -1.096,7.425 19.819,2.927 1.096,-7.425"
       style="fill:#abb2b0;fill-opacity:1;fill-rule:evenodd;stroke:none"
       id="path352" /><path
       d="m 357.53464,477.004 -19.82,-2.927 -1.096,7.425 19.819,2.927 1.097,-7.425"
       style="fill:#abb2b0;fill-opacity:1;fill-rule:evenodd;stroke:none"
       id="path354" /><path
       d="m 265.11264,518.721 -0.105,0.679 2.334,0.36 0.105,-0.679 -2.334,-0.36"
       style="fill:#d4d4d2;fill-opacity:1;fill-rule:nonzero;stroke:none"
       id="path356" /><path
       d="m 273.20264,466.235 -0.136,0.883 12.378,1.908 c 1.228,0.19 3.238,0.499 4.466,0.689 l 13.218,2.038 c 0.754,0.116 1.184,0.518 1.223,1.035 l 9.365,1.444 0.253,-1.712 -40.767,-6.285 m -2.067,13.41 -4.545,29.485 2.334,0.36 3.922,-25.443 c -0.106,-0.275 -0.207,-0.533 -0.295,-0.761 l -1.416,-3.641"
       style="fill:#b6b9b6;fill-opacity:1;fill-rule:nonzero;stroke:none"
       id="path358" /><path
       d="m 266.59064,509.13 -1.478,9.591 2.334,0.36 1.478,-9.591 -2.334,-0.36"
       style="fill:#7cb1af;fill-opacity:1;fill-rule:nonzero;stroke:none"
       id="path360" /><path
       d="m 273.06664,467.118 -0.384,2.49 2.335,0.36 0.256,-1.662 29.078,4.482 c -0.039,-0.517 -0.469,-0.919 -1.223,-1.035 l -13.218,-2.038 c -1.228,-0.19 -3.238,-0.499 -4.466,-0.689 l -12.378,-1.908"
       style="fill:#999b9b;fill-opacity:1;fill-rule:nonzero;stroke:none"
       id="path362" /><path
       d="m 272.68264,469.608 -1.547,10.037 1.416,3.641 c 0.088,0.228 0.189,0.486 0.295,0.761 l 2.171,-14.079 -2.335,-0.36"
       style="fill:#beaa26;fill-opacity:1;fill-rule:nonzero;stroke:none"
       id="path364" /><path
       d="m 333.76964,475.572 -0.253,1.712 3.642,0.561 0.253,-1.712 -3.642,-0.561"
       style="fill:#b6b9b6;fill-opacity:1;fill-rule:nonzero;stroke:none"
       id="path366" /><path
       d="m 396.63564,485.263 -0.264,1.71 14.013,2.161 0.264,-1.711 -14.013,-2.16"
       style="fill:#d4d4d2;fill-opacity:1;fill-rule:nonzero;stroke:none"
       id="path368" /><path
       d="m 357.21164,479.186 -0.253,1.712 39.413,6.075 0.264,-1.71 -39.424,-6.077"
       style="fill:#b6b9b6;fill-opacity:1;fill-rule:nonzero;stroke:none"
       id="path370" /><path
       d="m 313.96964,472.52 -0.253,1.712 19.8,3.052 0.253,-1.712 -19.8,-3.052"
       style="fill:#909595;fill-opacity:1;fill-rule:nonzero;stroke:none"
       id="path372" /><path
       d="m 337.41164,476.133 -0.253,1.712 19.8,3.053 0.253,-1.712 -19.8,-3.053"
       style="fill:#909595;fill-opacity:1;fill-rule:nonzero;stroke:none"
       id="path374" /><path
       d="m 264.92264,519.387 -1.479,9.59 137.744,21.234 1.05,-6.817 -135.324,-20.861 0.428,-2.773 -2.334,-0.36 -0.085,-0.013"
       style="fill:#d4d4d2;fill-opacity:1;fill-rule:nonzero;stroke:none"
       id="path376" /><path
       d="m 275.27364,468.306 137.445,21.187 -8.359,54.228 -137.446,-21.188 8.36,-54.227"
       style="fill:#dcdcd9;fill-opacity:1;fill-rule:nonzero;stroke:none"
       id="path378" /><path
       d="m 403.25764,552.281 -137.744,-21.234 1.479,-9.589 0.085,0.012 137.446,21.188 0.212,0.033 -1.478,9.59"
       style="fill:#92d3ce;fill-opacity:1;fill-rule:nonzero;stroke:none"
       id="path380" /><path
       d="m 404.07964,546.951 -11.618,-1.791 -0.821,5.33 11.617,1.791 0.822,-5.33"
       style="fill:#ed333d;fill-opacity:1;fill-rule:evenodd;stroke:none"
       id="path382" /><path
       d="m 397.01064,546.927 -0.765,-0.118 1.407,1.921 -1.804,1.34 0.795,0.122 1.377,-1.059 0.985,1.424 0.756,0.116 -1.314,-1.82 1.89,-1.413 -0.787,-0.122 -1.458,1.141 -1.082,-1.532"
       style="fill:#eaeae9;fill-opacity:1;fill-rule:nonzero;stroke:none"
       id="path384" /><path
       d="m 286.37764,481.461 c -0.995,0 -1.471,0.746 -1.066,1.789 l 4.846,12.465 c 0.45,1.159 1.186,3.054 1.636,4.212 l 4.843,12.467 c 0.252,0.646 0.676,0.981 1.138,0.981 0.364,0 0.752,-0.209 1.096,-0.637 l 8.374,-10.429 c 0.777,-0.969 2.051,-2.554 2.829,-3.523 l 8.373,-10.427 c 0.778,-0.97 0.41,-1.917 -0.818,-2.106 l -13.218,-2.038 c -1.228,-0.19 -3.238,-0.499 -4.466,-0.689 l -13.218,-2.037 c -0.122,-0.019 -0.239,-0.028 -0.349,-0.028"
       style="fill:#b6b9b6;fill-opacity:1;fill-rule:nonzero;stroke:none"
       id="path386" /><path
       d="m 293.53164,514.464 c 0.45,1.158 1.455,1.313 2.233,0.344 l 8.374,-10.428 c 0.777,-0.97 2.051,-2.555 2.829,-3.524 l 8.373,-10.427 c 0.778,-0.97 0.41,-1.917 -0.818,-2.106 l -13.218,-2.038 c -1.228,-0.189 -3.238,-0.499 -4.466,-0.688 l -13.218,-2.038 c -1.228,-0.189 -1.865,0.604 -1.415,1.762 l 4.846,12.465 c 0.45,1.158 1.186,3.053 1.636,4.212 l 4.844,12.466"
       style="fill:#e3c929;fill-opacity:1;fill-rule:evenodd;stroke:none"
       id="path388" /><path
       d="m 294.39964,506.944 c 0.201,0.064 0.4,0.118 0.594,0.165 0.196,0.046 0.398,0.084 0.603,0.117 0.222,0.034 0.444,0.06 0.669,0.079 0.224,0.018 0.45,0.028 0.676,0.031 l 1.7,-11.973 c -0.354,-0.119 -0.722,-0.209 -1.102,-0.267 -0.427,-0.067 -0.805,-0.093 -1.131,-0.078 l -2.009,11.926 z m 2.538,-17.098 c -0.066,0.217 -0.123,0.431 -0.171,0.642 -0.05,0.212 -0.09,0.428 -0.125,0.651 -0.034,0.22 -0.061,0.447 -0.081,0.68 -0.019,0.231 -0.03,0.461 -0.034,0.688 0.218,0.066 0.432,0.124 0.644,0.171 0.211,0.05 0.427,0.092 0.65,0.126 0.221,0.034 0.448,0.06 0.68,0.079 0.233,0.021 0.461,0.032 0.688,0.035 0.066,-0.218 0.124,-0.436 0.174,-0.655 0.05,-0.219 0.093,-0.44 0.127,-0.662 0.034,-0.221 0.06,-0.445 0.078,-0.668 0.019,-0.225 0.028,-0.451 0.032,-0.677 -0.218,-0.066 -0.436,-0.124 -0.654,-0.174 -0.221,-0.049 -0.441,-0.091 -0.662,-0.125 -0.222,-0.035 -0.445,-0.061 -0.669,-0.08 -0.224,-0.018 -0.45,-0.028 -0.677,-0.031"
       style="fill:#28292a;fill-opacity:1;fill-rule:nonzero;stroke:none"
       id="path390" /><path
       d="m 323.01364,519.498 48.947,7.545 -0.068,0.444 -48.947,-7.545"
       style="fill:#28292a;fill-opacity:1;fill-rule:nonzero;stroke:none"
       id="path392" /><path
       d="m 323.76764,514.613 71.622,11.041 -0.068,0.443 -71.623,-11.04"
       style="fill:#28292a;fill-opacity:1;fill-rule:nonzero;stroke:none"
       id="path394" /><path
       d="m 324.43564,510.271 71.623,11.041 -0.068,0.444 -71.623,-11.041"
       style="fill:#28292a;fill-opacity:1;fill-rule:nonzero;stroke:none"
       id="path396" /><path
       d="m 325.10664,505.929 71.621,11.041 -0.068,0.443 -71.622,-11.041"
       style="fill:#28292a;fill-opacity:1;fill-rule:nonzero;stroke:none"
       id="path398" /><path
       d="m 325.77564,501.586 71.622,11.041 -0.069,0.444 -71.621,-11.041"
       style="fill:#28292a;fill-opacity:1;fill-rule:nonzero;stroke:none"
       id="path400" /><path
       d="m 326.44564,497.245 71.621,11.04 -0.068,0.443 -71.622,-11.04"
       style="fill:#28292a;fill-opacity:1;fill-rule:nonzero;stroke:none"
       id="path402" /><path
       d="m 348.56764,488.053 -19.819,-2.927 -1.096,7.425 19.818,2.927 1.097,-7.425"
       style="fill:#abb2b0;fill-opacity:1;fill-rule:evenodd;stroke:none"
       id="path404" /><path
       d="m 372.03364,491.504 -19.819,-2.927 -1.096,7.426 19.819,2.926 1.096,-7.425"
       style="fill:#abb2b0;fill-opacity:1;fill-rule:evenodd;stroke:none"
       id="path406" /><path
       d="m 703.49264,411.442 c -3.338,-17.371 -10.261,-35.923 -22.793,-54.903 9.791,-11.501 15.722,-19.782 15.043,-22.318 -4.663,-17.416 -126.853,-70.638 -151.862,-77.192 -40.17,-10.529 -31.373,-47.578 -31.373,-47.578 8.059,-39.502 56.601,-19.686 56.601,-19.686 0,0 202.628,94.172 206.898,129.616 1.903,15.799 -32.095,53.438 -72.514,92.061"
       style="fill:#31747a;fill-opacity:1;fill-rule:nonzero;stroke:none"
       id="path408" /><path
       d="m 694.31964,503.877 c -10.196,34.407 -51.522,36.558 -51.522,36.558 -4.293,21.505 -20.261,30.435 -32.679,32.562 -81.576,13.979 -118.419,-20.074 -148.724,-20.734 -49.376,-1.075 -57.088,12.179 -57.088,12.179 -7.376,-21.274 3.145,-38.861 3.145,-38.861 -16.16,0.686 -20.454,12.413 -20.454,12.413 6.533,-31.608 21.438,-52.282 39.017,-65.768 1.306,-1.126 3.756,-3.103 7.353,-5.45 14.433,-9.417 47.234,-24.708 97.798,-14.153 0,0 0.408,-57.509 6.439,-71.683 1.75,-4.113 5.398,-6.533 10.03,-7.802 l 0.006,0.153 c 0.555,13.112 10.493,23.339 22.198,22.842 11.702,-0.497 20.743,-11.53 20.188,-24.642 l -0.336,-7.914 c -0.554,-13.114 -10.494,-23.34 -22.198,-22.844 -3.033,0.129 -5.885,0.971 -8.439,2.367 l -4.274,-19.866 31.548,-22.492 39.296,0.934 2.145,0.051 c 23.934,18.221 40.979,36.71 52.931,54.812 12.532,18.98 19.455,37.532 22.793,54.903 7.754,40.363 -3.811,74.341 -9.173,92.435"
       style="fill:#373025;fill-opacity:1;fill-rule:nonzero;stroke:none"
       id="path410" /><path
       d="m 449.31364,432.095 -1.157,-9.555 c -0.425,-3.519 -3.618,-6.026 -7.13,-5.599 -3.513,0.429 -6.013,3.625 -5.587,7.143 l 1.157,9.555 c 0.426,3.519 3.618,6.024 7.129,5.598 3.513,-0.426 6.016,-3.624 5.588,-7.142 z m 105.466,-108.861 4.274,19.866 c 2.554,-1.396 5.406,-2.238 8.439,-2.367 11.704,-0.496 21.644,9.73 22.198,22.844 l 0.336,7.914 c 0.555,13.112 -8.486,24.145 -20.188,24.642 -11.705,0.497 -21.643,-9.73 -22.198,-22.842 l -0.006,-0.153 c -4.632,1.269 -8.28,3.689 -10.03,7.802 -6.031,14.174 -6.439,71.683 -6.439,71.683 -50.564,-10.555 -83.365,4.736 -97.798,14.153 -2.019,-13.196 -8.022,-52.237 -8.468,-52.684 0,0 -0.407,-2.244 -1.019,-5.748 l -11.325,-8.229 c -8.99,-7.124 -12.691,-8.25 -11.27,-13.442 0.103,-0.377 1.487,-2.618 1.789,-2.866 6.355,-5.253 8.911,-5.385 15.793,-6.948 -0.373,-2.848 -0.654,-5.347 -0.789,-7.222 -0.438,-6.119 -0.519,-14.349 0.154,-23.199 -0.145,3.392 -0.105,5.358 -0.105,5.358 l 4.751,0.875 c 13.944,1.805 24.562,-0.406 27.504,-14.23 1.245,-9.66 -9.045,-18.961 -22.991,-20.766 l -3.673,-0.647 c 2.667,-7.957 6.404,-15.025 11.557,-19.957 14.229,-13.616 37.509,-19.772 64.761,-19.541 l 0,-16.66 88.017,5.376 0,10.752 37.57,0 0,24.678 -39.296,-0.934 -31.548,22.492"
       style="fill:#f9d0a8;fill-opacity:1;fill-rule:nonzero;stroke:none"
       id="path412" /><path
       d="m 450.38264,338.441 c -2.942,13.824 -13.56,16.035 -27.504,14.23 l -4.751,-0.875 c 0,0 -0.04,-1.966 0.105,-5.358 0.15,-3.521 0.498,-8.576 1.301,-14.602 1.072,-8.063 4.058,-14.831 4.058,-14.831 l 0.127,0.023 3.673,0.647 c 13.946,1.805 24.236,11.106 22.991,20.766"
       style="fill:#cc616c;fill-opacity:1;fill-rule:nonzero;stroke:none"
       id="path414" /><path
       d="m 443.72564,439.237 c -3.511,0.426 -6.703,-2.079 -7.129,-5.598 l -1.157,-9.555 c -0.426,-3.518 2.074,-6.714 5.587,-7.143 3.512,-0.427 6.705,2.08 7.13,5.599 l 1.157,9.555 c 0.428,3.518 -2.075,6.716 -5.588,7.142"
       style="fill:#040606;fill-opacity:1;fill-rule:nonzero;stroke:none"
       id="path416" /><path
       d="m 628.84364,283.45 c -5.719,3.817 -108.952,-10.241 -129.881,-19.355 -26.159,-11.393 -34.209,-64.616 -34.209,-64.616 0,0 -2.285,-60.112 -2.285,-66.565 l 0,-132.910875 69.4,0 0,-0.003125 145.287,0 c 0.152,17.0949 1.316,250.305 -48.312,283.45"
       style="fill:#388389;fill-opacity:1;fill-rule:evenodd;stroke:none"
       id="path418" /><path
       d="m 446.18164,483.524 c -6.711,-9.038 -19.465,-10.914 -28.487,-4.191 -9.021,6.724 -10.894,19.5 -4.182,28.537 l 16.938,22.81 c 6.713,9.038 19.468,10.914 28.488,4.191 9.023,-6.724 10.896,-19.5 4.184,-28.538 l -16.941,-22.809"
       style="fill:#f9d0a8;fill-opacity:1;fill-rule:evenodd;stroke:none"
       id="path420" /><path
       d="m 463.06764,498.039 c 0.942,-2.554 0.132,-5.206 -1.808,-5.925 l -10.808,-4.002 c -1.94,-0.718 -4.277,0.769 -5.219,3.323 -0.941,2.552 -0.134,5.206 1.808,5.923 l 10.806,4.002 c 1.942,0.719 4.277,-0.769 5.221,-3.321"
       style="fill:#f9d0a8;fill-opacity:1;fill-rule:evenodd;stroke:none"
       id="path422" /><path
       d="m 550.01464,204.543 c 6.973,19.957 -3.984,47.893 -48.905,58.475 -27.486,6.477 -159.06,38.039 -160.326,55.808 -1.611,22.581 107.869,167.732 107.869,167.732 l -32.198,25.804 c 0,0 -160.099,-167.851 -143.291,-216.113 16.101,-46.239 195.176,-110.663 211.112,-113.656 18.061,-3.394 50.677,-21.159 65.739,21.95"
       style="fill:#388389;fill-opacity:1;fill-rule:evenodd;stroke:none"
       id="path424" /><path
       d="m 764.96764,40.1262 0,101.8808 c 0,67.704 -36.161,136.98 -113.271,136.98 l -1.222,-0.1 c -93.467,-7.139 -126.183,-69.176 -126.183,-136.88 l 0,-87.5199 c 0,-21.4039 -1.263,-39.5992 1.169,-54.483975 l 6.408,0 0,-0.003125 232.749,0 c 0.94,10.548 0.35,23.7191 0.35,40.1262"
       style="fill:#c13e47;fill-opacity:1;fill-rule:evenodd;stroke:none"
       id="path426" /><path
       d="m 753.92864,0 c 9.497,15.702 6.228,38.891 6.228,69.8051 l 0,65.9609 c 0,63.869 -28.863,129.579 -92.69,129.579 l -4.302,0 c -77.369,-6.738 -102.231,-65.71 -102.231,-129.579 l 0,-24.706 c 0,-57.2838 -1.961,-91.1401 5.89,-111.06 l 187.105,0"
       style="fill:#28292a;fill-opacity:1;fill-rule:evenodd;stroke:none"
       id="path428" /><path
       d="m 699.44164,0.166016 0,50.415984 c 0,17.3559 -14.081,31.4321 -31.446,31.4321 -17.363,0 -31.439,-14.0762 -31.439,-31.4321 l 0,-50.415984 62.885,0"
       style="fill:#3f4043;fill-opacity:1;fill-rule:evenodd;stroke:none"
       id="path430" /><path
       d="m 708.17264,0.003125 0,50.514875 c 0,17.3929 -14.077,31.4961 -31.437,31.4961 -17.369,0 -31.449,-14.1032 -31.449,-31.4961 l 0,-50.514875 62.886,0"
       style="fill:#55595b;fill-opacity:1;fill-rule:evenodd;stroke:none"
       id="path432" /></g></svg>