<?xml version="1.0" encoding="UTF-8" standalone="no"?><svg xmlns="http://www.w3.org/2000/svg" viewBox="0 0 1000 1000" height="100%" width="100%"><path d="M680.732 344.602c-5.272 3.7-32.914 11.943-32.914 11.943s-5.968 4.047-4.398 26.937c1.567 22.89 17.56 44.323 22.888 49.228 2.716 2.5 5.546 4.39 7.586 4.314 11.3-.42 23.96-23.102 25.65-34.73 3.67-25.23-18.812-57.692-18.812-57.692" fill="#3d4c56" fill-rule="evenodd"/><path d="M698.772 379.15c-14.227 9.988-44.384 32.37-82.428 57.63-38.077 34.44-81.06 64.03-115.756 82.51-2.535 1.35-4.952 5.796-7.05 7.425-18.986 19.61-46.917 2.446-58.447-5.564-27.556-19.143-33.644-17.163-28.598-25.685 5.045-8.524-7.01-19.813 14.935-12.207 21.946 7.606 33.557 12.513 48.384 13.94 8.533-1.63 73.013-52.572 120.125-86.45 44.436-40.148 84.738-66.732 84.14-67.435-1.946-2.28 24.697 35.836 24.697 35.836" fill="#facbbb" fill-rule="evenodd"/><path d="M760.615 316.028c-15.676-20.064-28.47-16.993-50.42-7.586-21.947 9.406-63.934 48.698-63.934 48.698 51.368 5.134 38.216 78.375 27.634 79.884 6.64 4.178 117.62-81.443 86.72-120.996" fill="#51a7ac" fill-rule="evenodd"/><path d="M738.79 301.28c-4.435-.503-9.098.202-14.265 1.734-3.202 3.498-6.873 8.144-11.245 14.24-12.418 17.308-16.18 61.895-21.072 77.51-1.79 5.708-5.21 11.817-8.833 17.273-1.1 13.552-5.474 24.415-9.48 24.987 3.282 2.065 32.068-17.824 56.605-43.242 6.625-31.19 8.003-74.95 8.29-92.5" fill="#4c9aa0" fill-rule="evenodd"/><path d="M558.15 964.518c10.622 0 19.284-8.663 19.284-19.284 0-10.62-8.662-19.282-19.284-19.282-10.62 0-19.282 8.662-19.282 19.282s8.66 19.284 19.282 19.284M857.887 964.518c10.62 0 19.284-8.663 19.284-19.284 0-10.62-8.662-19.282-19.283-19.282-10.62 0-19.284 8.662-19.284 19.282s8.664 19.284 19.284 19.284" fill="#3a3a3c" fill-rule="evenodd"/><path d="M690.945 882.287h35.12l-10.035 45.415h-15.052l-10.033-45.415" fill="#65686c" fill-rule="evenodd"/><path d="M711.01 875.953l20.644 5.352 136.026 22.137c11.223 2.976 5.416 25.947-3.135 24.46-1.574-.275-156.668-14.32-156.668-14.32s-153.84 14.045-155.414 14.32c-8.55 1.487-14.358-21.484-3.135-24.46l134.77-22.137 20.644-5.352c.98.276 1.984.375 3.135.426 1.152-.052 2.155-.15 3.134-.427" fill="#302f31" fill-rule="evenodd"/><path d="M711.01 875.953l20.644 5.352 136.026 22.137c3.154.836 4.964 3.253 5.746 6.26-1.224 5.723-4.73 10.768-8.88 10.046-1.575-.274-156.67-14.32-156.67-14.32s-153.84 14.046-155.413 14.32c-4.152.722-7.657-4.323-8.88-10.045.78-3.008 2.59-5.425 5.745-6.26l134.77-22.138 20.644-5.352c.98.276 1.984.375 3.135.426 1.152-.052 2.155-.15 3.134-.427M709.262 964.518c10.62 0 19.284-8.663 19.284-19.284 0-10.62-8.663-19.282-19.284-19.282-10.62 0-19.284 8.662-19.284 19.282s8.663 19.284 19.284 19.284" fill="#3a3a3c" fill-rule="evenodd"/><path d="M694.804 810.7h24.772V682.32h-24.772V810.7z" fill="#d5d1d3" fill-rule="evenodd"/><path d="M694.806 810.7h12.385V682.32h-12.384V810.7z" fill="#ecebec" fill-rule="evenodd"/><path d="M688.32 882.287h37.744V756.145H688.32v126.142zM768.637 679.774l22.13 8.852s-2.602 5.47-2.602 6.77c0 1.302 30.205 11.978 30.205 11.978s3.645.52 6.38-3.645c2.733-4.167 2.212-7.293 1.43-7.812-.78-.523-29.064-15.237-30.14-14.126l-4.1 4.23-20.05-8.07-3.253 1.822M863.193 452.557c-11.756 65.835-36.62 126.653-61.458 188.45l-23.83-8.78L842.5 451.62l20.693.937" fill="#3a3a3c" fill-rule="evenodd"/><path d="M853.367 629.394c109.693 63.707-386.403 93.043-316.063-4.388 2.907-4.028 300.258-4.79 316.063 4.388" fill="#3d4c56" fill-rule="evenodd"/><path d="M530.517 642.97c-.042-5.437 2.05-11.405 6.787-17.964 2.907-4.028 300.258-4.79 316.063 4.388 15.895 21.017-41.045 34.812-99.737 37.715-76.21 3.773-163.124-7.366-177.13-9.43-19.128-2.82-34.356-8.545-45.983-14.71" fill="#37424c" fill-rule="evenodd"/><path d="M730.382 138.513c-1.66.113-59.735 20.033-59.642 18.936.094-1.095 1.548 15.905 1.548 15.905l57.457-23.81.637-11.032" fill="#211c1d" fill-rule="evenodd"/><path d="M121.12 531.51c-4.323 8.648-4.283 48.505 5.344 55.42l31.813-3.447-2.35-39.51-34.806-12.462" fill="#3a3a3c" fill-rule="evenodd"/><path d="M121.12 531.51l-.17-.084c-1.756 3.53-2.775 11.968-2.78 21.32 0 7.02.583 14.537 1.89 20.83 1.312 6.292 3.326 11.365 6.293 13.508l.058.042 32.068-3.473-2.37-39.815-35.082-12.564-.076.152.17.085-.062.18 34.684 12.422 2.334 39.202-31.633 3.426.02.19.113-.155c-2.812-2.01-4.85-7.02-6.143-13.277-1.3-6.256-1.882-13.754-1.882-20.75-.002-9.316 1.04-17.765 2.743-21.152l-.172-.085-.062.18.063-.18" fill="#211c1d"/><path d="M147.023 501.747c-6.898-5.016-18.825-21.276-30.113-44.48-11.288-23.202-7.527-66.16-25.713-89.99s-31.355-19.125-37.625-14.737c-.373.26-8.536 203.587-3.763 218.863 3.134 10.033 6.268 13.17 20.066 11.288 13.797-1.88 68.983-8.153 68.983-8.153l47.853-6.922 4.542-51.434-44.232-14.433" fill="#505044" fill-rule="evenodd"/><path d="M74.843 351.94c-9.8-5.41-17.08-2.336-21.27.6-.374.26-8.537 203.587-3.764 218.863 3.134 10.033 6.268 13.17 20.066 11.288 2.392-.326 6.03-.783 10.407-1.318.807-2.916 1.67-6.24 2.705-10.05 5.957-21.95 7.523-64.28 6.27-86.54-1.256-22.265 3.76-35.436.626-71.18-3.128-35.66-14.984-61.54-15.04-61.66" fill="#f7b86c" fill-rule="evenodd"/><path d="M43.177 467.537C41.96 505.9 45.984 564.44 48.822 573.52c2.836 9.08 5.08 11.728 13.288 11.802 26.41-16.036 7.48-228.317-7.403-232.842-5.855-1.783-8.737 27.14-11.53 115.057" fill="#fbc98d" fill-rule="evenodd"/><path d="M727.872 553.697c-11.288-2.51-298.024-30.105-308.538-27.59-10.515 2.51-279.384-30.704-279.384-30.704 21.53 29.254-13.486 91.526-13.486 91.526s276.24-1.57 282.512-1.57c6.27 0 156.464 24.145 156.464 24.145s119.15 10.034 125.422 7.524c6.27-2.51 37.01-63.333 37.01-63.333" fill="#343333" fill-rule="evenodd"/><path d="M394.09 787.756c-2.508 5.643-50.794 72.117-53.303 75.252-30.674 38.344-102.843-101.64-107.863-110.37-14.423-25.086-24.456-65.22-13.168-75.254 11.288-10.033 28.22-1.253 53.304 25.086 25.084 26.337 50.803 46.41 50.803 46.41s19.433-1.258 26.957-5.02c7.527-3.765 20.695 3.762 24.458 5.642 3.763 1.88 18.813 38.254 18.813 38.254" fill="#505044" fill-rule="evenodd"/><path d="M349.996 850.48c-5.01 6.888-8.575 11.735-9.21 12.528-30.673 38.344-102.842-101.64-107.862-110.37-14.423-25.086-24.456-65.22-13.168-75.254 5.562-4.944 12.5-5.316 21.104-1.273 11.96 11.83 30.698 31.86 45.313 52.925 21.322 30.727 49.857 65.845 57.382 94.38 2.89 10.954 5.13 19.825 6.44 27.066" fill="#f7b86c" fill-rule="evenodd"/><path d="M340.787 863.008c-30.674 38.344-102.843-101.64-107.863-110.37-14.423-25.086-24.456-65.22-13.168-75.254l.05-.042c6.383 3.666 13.02 8.73 19.39 15.72 27.633 21.877 106.714 152.913 101.59 169.946" fill="#fbc98d" fill-rule="evenodd"/><path d="M733.677 572.35c28.165 19.653 58.747 63.435 23.807 84.9-34.943 21.463-235.456-16.86-235.456-16.86S424.2 769.578 410.404 797.17c-13.796 27.59-46.534 34.124-46.534 34.124-3.45-36.515-.55-75.29-40.007-82.414 0 0 124.168-168.064 158.032-180.607 33.864-12.54 251.782 4.077 251.782 4.077" fill="#3a3a3c" fill-rule="evenodd"/><path d="M489.524 566.393c4.543-.79 10.22-1.392 16.818-1.83 49.307 4.058 148.487 12.483 153.27 14.963 6.38 3.308 24.144 21.697 24.144 21.697s-151.45-16.305-158.347-20.068c-4.598-2.507-23.668-10.022-35.886-14.762" fill="#363639" fill-rule="evenodd"/><path d="M848.08 316.538c6.898 1.882 60.203 2.51 77.134 22.576 16.933 20.07 16.935 43.9-6.268 93.44-23.204 49.542-67.953 43.396-67.953 43.396s-76.282-25.836-100.74-39.632c-24.457-13.798-32.61-56.44-18.185-82.153 14.422-25.71 116.012-37.627 116.012-37.627" fill="#3d4c56" fill-rule="evenodd"/><path d="M848.08 316.538c6.265 1.71 50.79 2.385 71.604 17.52 4.263 5.14 7.078 10.523 8.002 15.71 4.077 22.89-5.326 64.908-25.395 89.678-17.926 22.13-41.11 28.494-63.51 32.282a1824.88 1824.88 0 0 1-26.353-9.45c-27.844-28.754-65.663-104.983-65.663-104.983s21.497-16.926 47.496-31.303c27.658-6.382 53.82-9.454 53.82-9.454" fill="#37424c" fill-rule="evenodd"/><path d="M805.138 296.336c-3.763-.628-77.416 5.5-80.55 5.5-3.138 0-29.193 81.043-37.972 128.705-8.78 47.66-10.056 63.264-35.14 98.38-6.784 9.498-17.19 11.342-14.958 15.102 0 0 88.395 14.866 137.893 104.753 14.934 27.118 107.215-259.007 106.61-277.183-1.254-37.627 3.76-52.678-10.034-56.44-13.796-3.763-65.848-18.816-65.848-18.816" fill="#ccebcb" fill-rule="evenodd"/><path d="M805.138 296.336c-1.885-.314-22.694.128-42.01 1.584-1.99.148-3.862.26-4.575 1.39-7.768 8.216-11.217 16.543-8.458 22.926 5.367 12.418 32.192 12.77 59.913.79 11.15-4.82 20.746-10.9 27.887-17.257-.677-1.967-6.425-4.322-9.796-5.29-12.33-3.547-22.962-4.144-22.962-4.144" fill="#51a7ac" fill-rule="evenodd"/><path d="M639.888 539.11c-2.745 1.855-4.397 3.18-3.37 4.912 0 0 88.395 14.866 137.893 104.753 12.768 23.185 82.067-182.583 101.522-254.118-2.515-13.48-4.625-22.092-4.625-22.092S848.58 463.767 826.08 496.43c-22.5 32.66-29.273 33.415-42.065 38.682-12.794 5.267 0 45.903-18.06 44.4-18.06-1.506-61.235-39.87-91.81-41.39-12.977-.647-24.867.013-34.257.99" fill="#b4ddb9" fill-rule="evenodd"/><path d="M823.713 361.91c-5.273 3.7-32.913 11.942-32.913 11.942s-5.968 4.05-4.4 26.94c1.567 22.887 17.56 44.32 22.89 49.227 2.716 2.5 5.544 4.388 7.586 4.313 11.3-.42 23.96-23.102 25.65-34.73 3.67-25.23-18.813-57.694-18.813-57.694" fill="#3d4c56" fill-rule="evenodd"/><path d="M868.635 189.338c1.32 6.18 3.44 23.512-5.34 38.875-8.78 15.366-22.634 30.242-22.634 30.242l2.197-11.602s-.746.627-5.96 6.27c-5.21 5.646-13.168 9.722-13.168 9.722s.627-14.737 1.568-31.356c.94-16.62 2.508-33.865 2.508-33.865l40.83-8.287" fill="#9e473a" fill-rule="evenodd"/><path d="M838.376 212.93s-14.423 47.66-15.05 65.847c-.628 18.186 1.253 29.474 1.253 29.474s-9.407 9.407-32.61 15.052c-23.202 5.643-30.1.627-32.61-6.27-2.508-6.9-.627-13.797 3.763-15.052 4.39-1.254 4.39 1.255 15.678-23.203 11.29-24.458 11.29-37 11.29-37l48.286-28.846" fill="#edb6a5" fill-rule="evenodd"/><path d="M716.44 90.096c-34.064 35.798-30.23 91.85-8.81 138.338 1.8 3.91 17.6 33.677 19.478 36.783 12.253 20.253 20.996 24.8 34.146 24.89 22.263.145 51.932-20.43 74.087-42.248 18.97-18.683 17.365-26.444 27.544-47.624 10.227-21.284 37.643-58.173 23.782-90.05-13.86-31.878-29.356-46.955-83.926-47.68-54.573-.724-86.3 27.59-86.3 27.59" fill="#facbbb" fill-rule="evenodd"/><path d="M845.91 162.875c-.94.313-31.826 16.62-31.826 16.62s.16 27.75-4.7 37.782c-4.86 10.033-34.466 12.01-42.16 9.533-7.695-2.478-23.53-46.063-23.53-46.063l-2.383 7.214s-4.67-7.056-10.47-7.213c-5.803-.155-14.373 8.152-14.373 8.152l-1.574-19.428s73.245 8.492 75.95 6.827c2.706-1.665 55.643-24.18 57.89-23.613 2.25.57-2.822 10.188-2.822 10.188M716.423 90.114c-13.116 13.792-20.606 30.59-23.638 48.685 57.846 31.867 125.22-70.872 159.337-22.14 6.584 9.407.627 21.01-.783 22.422 0 0 31.294-37.532-13.953-73.198-9.436-2.08-20.777-3.193-34.647-3.377-46.898-.623-76.925 20.2-84.442 26.07l-.032.026c-.62.512-1.234 1.015-1.843 1.51M734.68 276.31c8.688 10.924 16.28 13.727 26.574 13.796 22.263.146 51.932-20.428 74.087-42.247 18.97-18.683 17.365-26.444 27.544-47.624l-7.71-3.354s-12.1 36.93-25.742 48.668c-13.643 11.738-42.96 29.77-56.756 34.475-13.796 4.702-32.722 1.033-37.996-3.716" fill="#fabea9" fill-rule="evenodd"/><path d="M825.91 101.576c-52.094 10.637-60.084 24.696-93.88 35.32-28.685 6.17-95.577-21.968-90.752-50.955 2.36 13.765 20.594 19.963 32.92 21.682-9.283-10.13-25.492-35.783-24.675-50.356 49.175 36.73 103.512-50.15 190.28-12.158 26.38 11.55 39.27 37.377 39.27 37.377s17.534-3.98 23.765 13.955c6.233 17.933 9.62 63.55-6.535 95.807-26.476 52.866-45.453 59.93-45.422 59.9 3.412-3.012 6.75-11.167 9.298-16.628 2.55-5.46 3.118-7.307 3.118-7.307-5.01 6.02-6.616 6.99-10.59 9.903-3.973 2.914-9.146 6.605-5.893 3.323 3.253-3.284 6.488-8.927 10.086-21.413 3.598-12.485 6.242-20.594 6.242-20.594s7.17-2.995 12.734-9.075c44.668-48.818-2.743-72.318-16.6-38.718-2.72 6.597-6.926 32.256-5.346 39.103 1.58 6.847 2.083 10.15.554 12.203-6.69 8.98-21.097 18.55-20.998 18.4 20.444-30.603 4.288-55.637 8.44-67.893 5.787-17.086 1.448-7.332 7.53-24.16 6.084-16.83-23.546-27.717-23.546-27.717" fill="#9e473a" fill-rule="evenodd"/><path d="M907.837 127.54c.91 20.32-1.667 45.005-11.534 64.707-26.476 52.866-45.453 59.93-45.422 59.9 11.214-6.048 32.542-39.977 36.767-52.96 3.996-12.28 4.807-20.904 3.19-30.375 9.06-19.833.31-32.104-10.723-32.885-7.777-17.534-15.982-24.535-15.982-24.535s6.584.94 15.364 9.092c8.78 8.153 18.5 31.356 18.5 29.476 0-1.882 2.82-15.994-4.39-31.67-7.212-15.678-14.288-22.84-14.288-22.84 7.487 6.98 24.854 22.265 28.52 32.09M674.198 107.622c-9.283-10.13-25.492-35.783-24.675-50.356 45.885 60.885 81.43 43.535 93.84 46.543 0 0-32.15 9.658-69.165 3.812" fill="#944035" fill-rule="evenodd"/><path d="M825.91 101.576c-52.094 10.637-60.084 24.696-93.88 35.32-28.303 6.088-93.795-21.223-90.9-49.797.124.37 2.854 8.434 10.893 19.228 8.23 11.053 27.28 18.108 51.974 23.282 24.692 5.174 80.19-28.456 110.526-35.51 30.336-7.056 56.664-9.937 55.028-8.468-1.635 1.47-4.7 2.588-14.344 7.29-9.64 4.704-8.23 10.347-8.23 10.347s7.29 10.346 8.934 23.044c1.647 12.7-3.057 15.993-6.35 33.395-3.293 17.4 1.646 28.922-1.646 40.68-3.292 11.76-14.332 20.906-14.332 20.906l-.016.01h-.002l-.077.04c17.395-43.074 4.287-55.638 8.44-67.893 5.787-17.087 1.448-7.333 7.53-24.16 6.083-16.83-23.546-27.717-23.546-27.717" fill="#944035" fill-rule="evenodd"/><path d="M713.945 161.72c-11.6-1.794-43.203-4.267-43.205-4.27-.004-.004 2.623 38.63 8.83 52.117 6.205 13.483 22.882 17.352 31.19 16.784 12.388-.844 12.733-26.59 11.403-45.446.486-5.244 13.122-5.17 14.695.975.736 9.28 2.302 20.575 5.61 29.302 6.787 17.896 27.712 22.865 41.85 22.178 14.14-.686 24.09-13.884 25.196-26.2 1.105-12.315-.143-30.59-.143-30.59l58.54-29.245-.316-9.327-60.583 28.44c-1.234-.398-48.8-1.393-62.565-1.674-3.704-.074-8.233-1.006-8.226 1.84 0 .32.003.68.007 1.07-3.084-2.687-12.713-2.48-15.25.266a98.022 98.022 0 0 0-.324-2.754c-.403-3.11-3.213-2.923-6.708-3.465" fill="#434e56" fill-rule="evenodd"/><path d="M741.573 169.87s-2.005 21.558 2.483 34.325c10.063 28.63 53.16 35.294 59.59 2.884 2.068-10.432-1.898-31.86-1.994-33.245-.093-1.384-60.08-3.964-60.08-3.964M714.623 166.116c-2.29-.956-41.26-5.593-41.26-5.593s2.56 31.604 4.964 38.255c4.298 11.913 9.844 19.953 23.896 22.497 20.235 3.664 13.738-36.48 12.4-55.16" fill="#bed4d2" fill-rule="evenodd"/><path d="M726.347 193.18c-.528 4.488-3.14 17.184-5.624 21.527-2.485 4.342-5.083 7.023-4.02 8.342 1.063 1.317 4.528 3.167 6.857 4.676 2.328 1.51 17.833.452 17.833.452s-6.394-4.014-11.362-5.482c-4.966-1.47-10.357-.962-10.357-.962s4.5-7.402 5.738-13.745c1.237-6.345.937-14.81.937-14.81" fill="#f89a82" fill-rule="evenodd"/><path d="M896.063 146.33c2.662 13.44-1.962 27.452-10.05 38.438-8.088 10.986-12.732 14.114-19.83 14.87-7.1.755-8.384-5.66-9.466-19.546-4.427-56.78 35.22-54.593 39.346-33.76" fill="#facbbb" fill-rule="evenodd"/><path d="M791.25 235.097c-6.506 20.99-20.696 32.383-39.5 33.358-15.552.806-23.947-8.475-30.847-27.8-.623-1.743 30.44 16.203 70.346-5.558" fill="#d5ad9d" fill-rule="evenodd"/><path d="M791.25 235.097a64.586 64.586 0 0 1-2.556 6.875c-7.39 15.73-20.15 24.28-36.324 25.118-15.143.784-23.5-7.996-30.3-26.295 5.985 1.93 34.18 13.39 69.18-5.698" fill="#67281e" fill-rule="evenodd"/><path d="M771.823 260.82c-5.646 3.34-12.13 5.22-19.282 5.59-7.47.387-13.287-1.555-18.083-5.817 6.154 1.078 17.136 2.587 26.564 1.673 4.375-.424 7.956-.944 10.803-1.446M789.54 236.62c-1.124 3.62-2.462 6.88-4.372 10.134-12.467 6.332-40.212 10.743-57.25 4.25-1.757-3.09-2.544-5.2-4.062-9.323 5.938 3.13 33.474 11.77 65.684-5.06" fill="#e9eae9" fill-rule="evenodd"/><path d="M595.28 517.874c-11.305-5.462-33.547-23.83-39.818-26.34-6.272-2.508-20.696-10.975-21.95-5.645-1.255 5.33 12.302 14.27 13.322 16.795 1.022 2.526 27.592 18.793 27.592 18.793l20.855-3.604" fill="#f5c3b0" fill-rule="evenodd"/><path d="M841.754 396.458c-14.227 9.99-44.384 32.37-82.428 57.63-38.077 34.442-81.063 64.03-115.756 82.51-2.535 1.35-4.952 5.797-7.052 7.424-18.984 19.61-46.915 2.448-58.445-5.562-27.56-19.144-33.645-17.164-28.6-25.688 5.046-8.522-7.01-19.813 14.934-12.207 21.946 7.607 33.557 12.514 48.386 13.94 8.532-1.63 73.01-52.57 120.122-86.448 44.44-40.148 84.74-66.732 84.14-67.435-1.944-2.28 24.7 35.836 24.7 35.836" fill="#facbbb" fill-rule="evenodd"/><path d="M903.597 333.337c-15.676-20.066-28.472-16.993-50.42-7.587-21.947 9.405-63.934 48.698-63.934 48.698 51.365 5.135 37.128 79.535 26.075 80.48 6.684 3.237 119.177-82.038 88.28-121.59" fill="#51a7ac" fill-rule="evenodd"/><path d="M385.703 521.428l-.442-13.413 121.098 10.958 177.645 60.592-83.472-.13-62.51-8.325-152.317-49.682" fill="#7a7c81" fill-rule="evenodd"/><path d="M470.563 521.305l5.915-5.78 131.47 45.153-86.465-8.967-50.92-30.405" fill="#505256" fill-rule="evenodd"/><path d="M385.715 521.776l151.125 55.8 1.398-13.287-152.977-56.275.455 13.76" fill="#65686c" fill-rule="evenodd"/><path d="M524.91 567.42l1.176-14.11-129.57-44.995c-3.906-.072-5.018 10.028-1.29 11.398L524.91 567.42" fill="#3a3a3c" fill-rule="evenodd"/><path d="M526.086 553.31s-4.05 1.086-4.442 7.082c-.392 5.998 2.26 6.72 3.267 7.03l1.176-14.112" fill="#505256" fill-rule="evenodd"/><path d="M547.64 558.92l-26.76-164.655-158.96-58.497-8.385 4.788 25.744 165.237 158.845 57.81 9.515-4.683" fill="#505256" fill-rule="evenodd"/><path d="M884.572 144.984c9.01 13.33 3.374 37.364-10.977 45.143-8.702 4.717-9.94-6.548-8.806-9.207 1.136-2.66 5.527-9.644 4.223-11.524-1.305-1.88-4.84.19-6.003-1.548-4.56-6.808 13.986-34.074 21.562-22.864" fill="#efb097" fill-rule="evenodd"/><path d="M867.2 190.433c-2.868-2.134-3.168-7.74-2.41-9.513 1.136-2.66 5.527-9.644 4.223-11.524-1.305-1.88-4.84.19-6.003-1.548-2.92-4.36 3.632-17.104 10.714-22.767.664.432 1.283 1.043 1.843 1.87 8.44 12.487 4.026 34.373-8.367 43.483" fill="#eca587" fill-rule="evenodd"/><path d="M533.286 496.9c-11.715 10.614-23.05 34.23-13.402 32.216 10.156-2.12 14.95-9.998 24.6-18.05 3.702 1.25 11.444 6.202 14.33 4.977 2.884-1.225 12.534-11.59 6.74-14.58-14.567-7.518-22.256-13.632-32.268-4.563" fill="#facbbb" fill-rule="evenodd"/><path d="M516.417 524.307c-.58 3.42.34 5.462 3.467 4.81 10.156-2.12 14.95-10 24.6-18.052 2.697.913 7.536 3.785 11.08 4.805 3.954-3.528 5.36-6.436 5.36-6.436-1.653-.654 7.178-6.506 5.877-7-16.43-6.453-29.25 10.824-36.603 16.093-7.355 5.268-11.305 5.4-13.78 5.78" fill="#f4b7a0" fill-rule="evenodd"/><path d="M546.64 505.283c-11.716 10.612-23.05 34.23-13.4 32.215 10.155-2.118 14.946-10 24.598-18.052 3.703 1.253 11.445 6.203 14.33 4.98 2.885-1.225 12.533-11.592 6.74-14.582-14.566-7.516-22.255-13.63-32.268-4.56" fill="#facbbb" fill-rule="evenodd"/><path d="M529.772 532.69c-.58 3.42.34 5.46 3.467 4.808 10.155-2.118 14.946-10 24.598-18.052 2.697.913 7.535 3.786 11.08 4.807 3.955-3.53 5.362-6.438 5.362-6.438-1.654-.653 7.175-6.504 5.876-7-16.43-6.452-29.25 10.825-36.605 16.094-7.353 5.268-11.305 5.4-13.778 5.78" fill="#f4b7a0" fill-rule="evenodd"/><path d="M562.32 512.338c-7.843 7.13-15.81 20.46-16.87 27.407-.516 3.373 2.014 4.85 5.124 4.208 10.157-2.104 13.29-9.397 22.94-17.45 3.705 1.252 11.446 6.203 14.33 4.978 2.887-1.224 12.535-11.59 6.743-14.58-14.567-7.517-22.275-13.647-32.268-4.562" fill="#facbbb" fill-rule="evenodd"/><path d="M545.45 539.745c-.58 3.42 2.535 5.58 5.66 4.927 10.157-2.12 11.093-8.692 20.744-16.744 2.88.932 10.49 3.082 9.922 3.77.72-.64 15.63-13.23 14.058-13.826-15.555-6.812-32.583 16.154-39.938 21.423-7.354 5.27-9.853 2.5-10.446.45" fill="#f4b7a0" fill-rule="evenodd"/><path d="M582.343 520.814c-10.723 9.715-21.1 31.333-12.268 29.49 9.297-1.94 13.682-9.152 22.518-16.523 3.39 1.146 10.476 5.677 13.116 4.557 2.638-1.12 11.473-10.61 6.17-13.347-13.335-6.88-20.373-12.477-29.537-4.176" fill="#facbbb" fill-rule="evenodd"/><path d="M576.49 544.13c-2.823 1.638-6.833 2.626-9.737 3.17-.065 2.266.916 3.505 3.322 3.004 4.035-.842 7.144-2.678 10.095-5.087 1.636-1.338 3.225-2.854 4.896-4.475 1.134-1.1 2.304-2.248 3.552-3.422 1.235-1.162.148-.263 1.576-1.453.012 0 13.01 7.362 11.103 1.825-.55-1.592-9.832-8.18-9.396-7.625.437.556-3.125 3.61-6.876 6.917-.853.752-1.72 1.51-2.565 2.24-1.644 1.428-3.19 2.76-4.336 3.758a10.32 10.32 0 0 1-1.634 1.15" fill="#f4b7a0" fill-rule="evenodd"/><path d="M682.326 592.962l1.677-13.397-145.836-15.128-1.4 13.287 145.56 15.238" fill="#505256" fill-rule="evenodd"/><path d="M547.64 558.92c-.783.314-9.402 5.37-9.402 5.37l-27.14-164.44 9.78-5.585L547.64 558.92" fill="#65686c" fill-rule="evenodd"/><path d="M538.238 564.29c-.784.313-158.96-58.497-158.96-58.497L353.32 340.68l157.78 59.17 27.138 164.44" fill="#8e9194" fill-rule="evenodd"/><path d="M765.472 271.584c-4.74 1.368-15.644 1.488-20.734.706 5.55 4.07 18.096 3.223 22.816-1.297l-2.082.59" fill="#f89a82" fill-rule="evenodd"/><path d="M661.533 513.815c-14.93 10.7-24.463 17.526-24.463 17.526s-4.495 6.744-10.663 11.702c-3.103 2.496-6.63 4.54-10.22 5.043-7.366 1.033-16.114.625-20.87.267 12.904 5.655 28.924 8.352 41.2-4.33 1.787-1.386 3.803-4.81 5.926-6.633a6.522 6.522 0 0 1 1.127-.792c34.693-18.48 77.68-48.068 115.756-82.51 4.03-2.675 7.97-5.32 11.814-7.917a1864.88 1864.88 0 0 0 23.974-16.5c11.334-7.925 21.312-15.07 29.57-21.003-.66-3.45-1.607-6.843-2.895-10.073-8.214 5.96-18.78 13.593-30.69 22.178-9.18 6.616-19.16 13.798-29.48 21.217a81724.17 81724.17 0 0 1-100.087 71.825M647.95 403.03c-34.534 26.563-80.957 61.203-108.505 81.666 3.16.885 7.085 2.715 10.536 4.346 22.114-15.16 45.012-32.948 66.364-52.262a1792.827 1792.827 0 0 0 35.79-24.418c11.332-7.926 21.312-15.07 29.57-21.004-.786-4.11-1.98-8.135-3.67-11.904-7.806 6.31-18.246 14.47-30.085 23.575" fill="#fab9a1" fill-rule="evenodd"/><path d="M842.787 417.318c-5.52 3.717-11.258 7.214-17.094 10.547-.942 12.947-4.88 23.84-8.817 26.468-.522.347-1.043.55-1.558.594.55.265 1.805-.063 3.636-.912 1.69-.782 3.866-2.01 6.423-3.62 10.95-6.898 28.874-20.857 45.322-37.32 26.362-26.39 48.928-59.217 32.897-79.738-2.332-2.983-4.598-5.456-6.842-7.472-.955 7.12-2.446 16.338-4.76 27.132-2.44 11.38-7.01 21.386-13.117 30.31-9.22 13.468-21.933 24.47-36.09 34.01" fill="#4c9aa0" fill-rule="evenodd"/><path d="M695.874 195.144c6.668.347 13.64 1.256 20.793 2.74.063-4.588-.178-9.432-.524-14.118-8-1.525-15.756-2.323-23.088-2.417-6.168-.078-12.035.343-17.494 1.254.6 5.003 1.273 9.804 1.958 13.09 5.758-.7 11.915-.887 18.356-.55M741.513 190.833c.4 4.697 1.166 9.444 2.543 13.362.28.795.584 1.573.913 2.334 1.383.558 2.767 1.137 4.15 1.737 12.856 5.578 24.423 12.4 34.295 19.937 4.303-.78 8.315-2.563 11.66-5.44-11.67-10.78-26.694-20.597-44.073-28.137a174.977 174.977 0 0 0-9.49-3.794" fill="#fff" fill-rule="evenodd"/><path d="M703.85 633.583c-52.96-8.588-138.048-15-175.72-17.574-11.842-.81-18.998-1.242-18.998-1.242S432 741.758 403.31 771.388a198.392 198.392 0 0 1-11.49 10.977c-12.442 10.938-23.06 17.29-30.186 20.816.88 9.135 1.346 18.7 2.236 28.114 0 0 32.738-6.533 46.534-34.125 13.796-27.593 111.624-156.78 111.624-156.78s4.21.806 11.514 2.115c43.112 7.735 194.062 33.1 223.942 14.744 6.758-4.152 11.065-9.14 13.413-14.626a217.378 217.378 0 0 0-9.45-14.584c-10.967 6.446-28.55 10.252-57.597 5.543" fill="#343438" fill-rule="evenodd"/><path d="M126.464 586.93s276.24-1.57 282.512-1.57c2.1 0 20.343 2.71 43.68 6.312 6.76-6.794 12.94-12.48 18.255-16.623l-84.288-18.38s-138.3 7.323-199.28 3.81c-4.59-.266-8.745-.59-12.368-.987-6.883-.75-12.937-1.436-18.247-2.06a1114.5 1114.5 0 0 1-16.51-2.044c-2.567 7.61-5.47 14.51-7.945 19.9-3.28 7.143-5.808 11.64-5.808 11.64" fill="#2f2d2d" fill-rule="evenodd"/><path d="M490.51 546.99c-47.444-36.52-79.238-103.47-79.238-180.03 0-1.514.02-3.023.044-4.53l99.783 37.42 27.138 164.44c-.285.114-21.18-7.517-47.73-17.3" fill="#9b9c9b" fill-rule="evenodd"/><path d="M869.947 76.75c-57.914-56.498-108.08-30.842-140.16-17.558 38.088-12.027 90.544-15.125 120.718 15.05-87.002-27.217-70.09-7.068-144.235-.94-18.97 1.566-42.33-5.8-42.33-5.8 26.896 30.955 92.567-.29 119.62.154 19.127.314 46.092 10.347 44.525 10.66-1.568.315-15.364-3.134-47.034 3.45-31.667 6.584-41.387 10.347-61.14 9.094-19.756-1.255-26.966-3.763-26.966-3.763s14.422 8.78 34.49 10.66c20.068 1.88 67.788-6.82 64.28-5.33-11.448 4.862-28.38 13.68-103.787 24.77 37.828 24.974 143.4-46.177 182.02-40.447" fill="#944035" fill-rule="evenodd"/><path d="M653.998 585.275l-12.95-1.47.402-3.53 12.947 1.468-.4 3.532M673.414 587.04l-12.95-1.47.402-3.53 12.947 1.468-.4 3.532" fill="#2e2d2d" fill-rule="evenodd"/></svg>