<?xml version="1.0" encoding="UTF-8" standalone="no"?>
<svg
   xmlns:dc="http://purl.org/dc/elements/1.1/"
   xmlns:cc="http://creativecommons.org/ns#"
   xmlns:rdf="http://www.w3.org/1999/02/22-rdf-syntax-ns#"
   xmlns:svg="http://www.w3.org/2000/svg"
   xmlns="http://www.w3.org/2000/svg"
   viewBox="0 0 1000 1000"
   height="1000"
   width="1000"
   xml:space="preserve"
   version="1.1"
   id="svg2"><metadata
     id="metadata8"><rdf:RDF><cc:Work
         rdf:about=""><dc:format>image/svg+xml</dc:format><dc:type
           rdf:resource="http://purl.org/dc/dcmitype/StillImage" /><dc:title></dc:title></cc:Work></rdf:RDF></metadata><defs
     id="defs6"><clipPath
       id="clipPath20"
       clipPathUnits="userSpaceOnUse"><path
         id="path22"
         d="m 1060,561.871 6750,0 0,1140 -6750,0 0,-1140 z" /></clipPath></defs><g
     transform="matrix(1.25,0,0,-1.25,0,1000)"
     id="g10"><path
       d="m 544.58596,524.31843 c -4.21794,-2.95976 -26.3314,-9.55426 -26.3314,-9.55426 0,0 -4.77431,-3.23794 -3.51895,-21.55003 1.25394,-18.3121 14.04755,-35.45779 18.31068,-39.38202 2.17322,-2.00094 4.43681,-3.51188 6.0692,-3.45116 9.04025,0.33608 19.16782,18.48154 20.52061,27.78303 2.93434,20.18454 -15.05014,46.15444 -15.05014,46.15444"
       style="fill:#3d4c56;fill-opacity:1;fill-rule:evenodd;stroke:none"
       id="path28" /><path
       d="m 559.0176,496.68084 c -11.38151,-7.99107 -35.50721,-25.89789 -65.94217,-46.10501 -30.46179,-27.55287 -64.84921,-51.22387 -92.60541,-66.00854 -2.02778,-1.08026 -3.96094,-4.63592 -5.63992,-5.93929 -15.18853,-15.687 -37.53358,-1.95717 -46.75741,4.45093 -22.04568,15.31562 -26.916,13.73125 -22.87881,20.54886 4.03577,6.81902 -5.60886,15.8508 11.94776,9.76607 17.55662,-6.08473 26.8454,-10.01036 38.70703,-11.15275 6.82608,1.30478 58.41004,42.05794 96.09894,69.16034 35.54958,32.11818 67.79061,53.3858 67.31191,53.94781 -1.55613,1.82443 19.75808,-28.66842 19.75808,-28.66842"
       style="fill:#facbbb;fill-opacity:1;fill-rule:evenodd;stroke:none"
       id="path30" /><path
       d="m 608.49188,547.17748 c -12.54084,16.05132 -22.77573,13.59427 -40.33518,6.0692 -17.55803,-7.52508 -51.14761,-38.95839 -51.14761,-38.95839 41.09347,-4.10779 30.57193,-62.69999 22.1064,-63.90733 5.3109,-3.34244 94.09659,65.15422 69.37639,96.79652"
       style="fill:#51a7ac;fill-opacity:1;fill-rule:evenodd;stroke:none"
       id="path32" /><path
       d="m 591.0327,558.97556 c -3.54861,0.40245 -7.27937,-0.16098 -11.41258,-1.38668 -2.56155,-2.79878 -5.49871,-6.51542 -8.99648,-11.3914 -9.93411,-13.84704 -12.94329,-49.51664 -16.85763,-62.00806 -1.43046,-4.56673 -4.1671,-9.454 -7.06614,-13.8188 -0.87974,-10.84209 -4.37892,-19.53214 -7.58438,-19.98966 2.6265,-1.65216 25.655,14.25937 45.28458,34.59358 5.29961,24.95178 6.40246,59.95911 6.63263,74.00102"
       style="fill:#4c9aa0;fill-opacity:1;fill-rule:evenodd;stroke:none"
       id="path34" /><path
       d="m 446.51996,28.385237 c 8.49801,0 15.42717,6.93058 15.42717,15.427176 0,8.496596 -6.92916,15.425763 -15.42717,15.425763 -8.4966,0 -15.42576,-6.929167 -15.42576,-15.425763 0,-8.496596 6.92916,-15.427176 15.42576,-15.427176"
       style="fill:#3a3a3c;fill-opacity:1;fill-rule:evenodd;stroke:none"
       id="path36" /><path
       d="m 686.3098,28.385237 c 8.4966,0 15.42718,6.93058 15.42718,15.427176 0,8.496596 -6.93058,15.425763 -15.42718,15.425763 -8.4966,0 -15.42717,-6.929167 -15.42717,-15.425763 0,-8.496596 6.93057,-15.427176 15.42717,-15.427176"
       style="fill:#3a3a3c;fill-opacity:1;fill-rule:evenodd;stroke:none"
       id="path38" /><path
       d="m 552.75636,94.170666 28.09511,0 -8.02778,-36.33188 -12.04096,0 -8.02637,36.33188"
       style="fill:#65686c;fill-opacity:1;fill-rule:evenodd;stroke:none"
       id="path40" /><path
       d="m 568.80909,99.237275 16.51449,-4.281482 108.82054,-17.709126 c 8.97812,-2.380798 4.33232,-20.757847 -2.50788,-19.567448 -1.2596,0.218875 -125.33503,11.456354 -125.33503,11.456354 0,0 -123.07144,-11.237479 -124.33103,-11.456354 -6.83879,-1.190399 -11.48601,17.18665 -2.50789,19.567448 l 107.81654,17.709126 16.51449,4.281482 c 0.78513,-0.220287 1.5872,-0.299365 2.50789,-0.340316 0.9221,0.04095 1.72417,0.120029 2.50788,0.340316"
       style="fill:#302f31;fill-opacity:1;fill-rule:evenodd;stroke:none"
       id="path42" /><path
       d="m 568.80909,99.237275 16.51449,-4.281482 108.82054,-17.709126 c 2.52342,-0.669335 3.97082,-2.602498 4.59638,-5.008713 -0.97858,-4.578023 -3.78301,-8.613801 -7.10426,-8.036252 -1.2596,0.218875 -125.33503,11.456354 -125.33503,11.456354 0,0 -123.07144,-11.237479 -124.33103,-11.456354 -3.32126,-0.577549 -6.12569,3.458229 -7.10286,8.036252 0.62415,2.406215 2.07155,4.339378 4.59497,5.008713 l 107.81654,17.709126 16.51449,4.281482 c 0.78513,-0.220287 1.5872,-0.299365 2.50789,-0.340316 0.9221,0.04095 1.72417,0.120029 2.50788,0.340316"
       style="fill:#3a3a3c;fill-opacity:1;fill-rule:evenodd;stroke:none"
       id="path44" /><path
       d="m 567.4097,28.385237 c 8.4966,0 15.42718,6.93058 15.42718,15.427176 0,8.496596 -6.93058,15.425763 -15.42718,15.425763 -8.49659,0 -15.42717,-6.929167 -15.42717,-15.425763 0,-8.496596 6.93058,-15.427176 15.42717,-15.427176"
       style="fill:#3a3a3c;fill-opacity:1;fill-rule:evenodd;stroke:none"
       id="path46" /><path
       d="m 555.84321,151.44114 19.81738,0 0,102.70205 -19.81738,0 0,-102.70205 z"
       style="fill:#d5d1d3;fill-opacity:1;fill-rule:evenodd;stroke:none"
       id="path48" /><path
       d="m 555.84462,151.44114 9.90841,0 0,102.70205 -9.90841,0 0,-102.70205 z"
       style="fill:#ecebec;fill-opacity:1;fill-rule:evenodd;stroke:none"
       id="path50" /><path
       d="m 550.65516,94.170666 30.19631,0 0,100.913204 -30.19631,0 0,-100.913204 z"
       style="fill:#3a3a3c;fill-opacity:1;fill-rule:evenodd;stroke:none"
       id="path52" /><path
       d="m 614.90987,256.18071 17.70489,-7.08167 c 0,0 -2.08285,-4.37468 -2.08285,-5.4154 0,-1.04213 24.16383,-9.5825 24.16383,-9.5825 0,0 2.91598,-0.41657 5.10333,2.91598 2.18734,3.33256 1.77077,5.83338 1.14521,6.24854 -0.62415,0.41798 -23.25162,12.18923 -24.11158,11.30102 l -3.28031,-3.3848 -16.04002,6.45753 -2.6025,-1.4587"
       style="fill:#3a3a3c;fill-opacity:1;fill-rule:evenodd;stroke:none"
       id="path54" /><path
       d="m 690.55457,437.95449 c -9.40458,-52.66845 -29.2954,-101.3223 -49.16644,-150.75986 l -19.06333,7.02378 51.67433,144.4859 16.55544,-0.74982"
       style="fill:#3a3a3c;fill-opacity:1;fill-rule:evenodd;stroke:none"
       id="path56" /><path
       d="m 682.69342,296.48482 c 87.75485,-50.96545 -309.12246,-74.43453 -252.85034,3.51048 2.32572,3.22241 240.20641,3.83244 252.85034,-3.51048"
       style="fill:#3d4c56;fill-opacity:1;fill-rule:evenodd;stroke:none"
       id="path58" /><path
       d="m 424.41356,285.62296 c -0.0339,4.35068 1.64086,9.12498 5.42952,14.37234 2.32572,3.22241 240.20641,3.83244 252.85034,-3.51048 12.71594,-16.81385 -32.83553,-27.8494 -79.78921,-30.1723 -60.96876,-3.01907 -130.49908,5.89268 -141.70408,7.54343 -15.30291,2.25512 -27.48508,6.83597 -36.78657,11.76701"
       style="fill:#37424c;fill-opacity:1;fill-rule:evenodd;stroke:none"
       id="path60" /><path
       d="m 584.30546,689.18939 c -1.32878,-0.0904 -47.78823,-16.02591 -47.71339,-15.14899 0.0748,0.8755 1.23841,-12.72442 1.23841,-12.72442 l 45.96521,19.04779 0.50977,8.82562"
       style="fill:#211c1d;fill-opacity:1;fill-rule:evenodd;stroke:none"
       id="path62" /><path
       d="m 96.897108,374.79133 c -3.459641,-6.91787 -3.427163,-38.80305 4.274422,-44.33424 l 25.45024,2.75641 -1.88091,31.607 -27.843752,9.97083"
       style="fill:#3a3a3c;fill-opacity:1;fill-rule:evenodd;stroke:none"
       id="path64" /><path
       d="m 96.897108,374.79133 -0.136974,0.0678 c -1.405038,-2.82279 -2.219819,-9.57403 -2.224055,-17.05674 0,-5.6145 0.465993,-11.62863 1.510945,-16.66276 1.050602,-5.03413 2.661806,-9.0925 5.035546,-10.80679 l 0.0466,-0.0339 25.65358,2.77901 -1.89644,31.85129 -28.065456,10.05132 -0.06072,-0.12144 0.136974,-0.0678 -0.05084,-0.14404 27.747732,-9.93693 1.8668,-31.3613 -25.30622,-2.74088 0.017,-0.15109 0.089,0.12285 c -2.249473,1.60697 -3.879035,5.61592 -4.914103,10.6218 -1.040716,5.00448 -1.505297,11.00307 -1.505297,16.60063 -0.0028,7.45165 0.831726,14.21136 2.192989,16.92118 l -0.136973,0.0678 -0.05084,-0.14404 0.05084,0.14404"
       style="fill:#211c1d;fill-opacity:1;fill-rule:nonzero;stroke:none"
       id="path66" /><path
       d="m 117.61824,398.60213 c -5.51848,4.01319 -15.06003,17.02144 -24.090399,35.58347 -9.030369,18.56203 -6.021188,52.92827 -20.570038,71.99301 C 58.408954,525.24194 47.873287,521.4787 42.857514,517.96822 42.559561,517.75923 36.028606,355.0982 39.84692,342.8779 c 2.507887,-8.02636 5.015774,-10.53566 16.054147,-9.03036 11.036961,1.50529 55.186213,6.52248 55.186213,6.52248 l 38.2834,5.53825 3.63333,41.14713 -35.38577,11.54673"
       style="fill:#505044;fill-opacity:1;fill-rule:evenodd;stroke:none"
       id="path68" /><path
       d="m 59.874712,518.44692 c -7.839971,4.32808 -13.663464,1.86962 -17.017198,-0.4787 -0.297953,-0.20899 -6.828908,-162.87002 -3.010594,-175.09032 2.507887,-8.02636 5.015774,-10.53566 16.054147,-9.03036 1.913393,0.26123 4.823728,0.62697 8.325732,1.05483 0.645329,2.33279 1.335845,4.99318 2.163335,8.04049 4.765832,17.55945 6.018363,51.42298 5.015773,69.23236 -1.004002,17.8108 3.009182,28.34788 0.501295,56.94428 -2.502238,28.52721 -11.987303,49.22999 -12.03249,49.32742"
       style="fill:#f7b86c;fill-opacity:1;fill-rule:evenodd;stroke:none"
       id="path70" /><path
       d="m 34.541666,425.97001 c -0.974348,-30.69055 2.245237,-77.52138 4.515891,-84.78521 2.269242,-7.26525 4.064019,-9.38339 10.630277,-9.4427 21.129228,12.82891 5.984473,182.65351 -5.922341,186.27413 -4.68393,1.42622 -6.989887,-21.71242 -9.223827,-92.04622"
       style="fill:#fbc98d;fill-opacity:1;fill-rule:evenodd;stroke:none"
       id="path72" /><path
       d="m 582.29746,357.04266 c -9.03037,2.0066 -238.4187,24.08334 -246.83057,22.07251 -8.41187,-2.00941 -223.50693,24.56204 -223.50693,24.56204 17.22336,-23.4027 -10.78843,-73.22012 -10.78843,-73.22012 0,0 220.99198,1.25394 226.00917,1.25394 5.01718,0 125.17123,-19.31468 125.17123,-19.31468 0,0 95.32087,-8.02778 100.33806,-6.01978 5.01577,2.0066 29.60747,50.66609 29.60747,50.66609"
       style="fill:#343333;fill-opacity:1;fill-rule:evenodd;stroke:none"
       id="path74" /><path
       d="m 315.27247,169.79559 c -2.00659,-4.51448 -40.63595,-57.6941 -42.64254,-60.20199 -24.53945,-30.675009 -82.27451,81.31286 -86.29051,88.29569 -11.53826,20.06874 -19.56463,52.17562 -10.53426,60.2034 9.03037,8.02637 22.57522,1.00259 42.64255,-20.06874 20.06733,-21.06992 40.64302,-37.1283 40.64302,-37.1283 0,0 15.54579,1.00682 21.56556,4.01742 6.02119,3.01059 16.55544,-3.0106 19.56604,-4.51448 3.01059,-1.5053 15.05014,-30.603 15.05014,-30.603"
       style="fill:#505044;fill-opacity:1;fill-rule:evenodd;stroke:none"
       id="path76" /><path
       d="m 279.99684,119.61527 c -4.00753,-5.51001 -6.85997,-9.38763 -7.36691,-10.02167 -24.53945,-30.675009 -82.27451,81.31286 -86.29051,88.29569 -11.53826,20.06874 -19.56463,52.17562 -10.53426,60.2034 4.44952,3.95529 9.99907,4.25324 16.88305,1.01813 9.56697,-9.46389 24.5578,-25.48697 36.24998,-42.33895 17.05815,-24.58181 39.88613,-52.67551 45.90591,-75.50349 2.3116,-8.76348 4.10497,-15.86069 5.15274,-21.65311"
       style="fill:#f7b86c;fill-opacity:1;fill-rule:evenodd;stroke:none"
       id="path78" /><path
       d="m 272.62993,109.5936 c -24.53945,-30.675009 -82.27451,81.31286 -86.29051,88.29569 -11.53826,20.06874 -19.56463,52.17562 -10.53426,60.2034 l 0.0395,0.0339 c 5.10615,-2.93293 10.41705,-6.98424 15.5119,-12.57615 22.1064,-17.50154 85.37124,-122.33008 81.27333,-135.95683"
       style="fill:#fbc98d;fill-opacity:1;fill-rule:evenodd;stroke:none"
       id="path80" /><path
       d="m 586.94185,342.11961 c 22.53144,-15.72231 46.99746,-50.74799 19.04497,-67.91911 -27.9539,-17.17112 -188.36404,13.48695 -188.36404,13.48695 0,0 -78.26273,-103.34866 -89.29969,-125.42258 -11.03696,-22.07392 -37.22715,-27.3001 -37.22715,-27.3001 -2.76066,29.21208 -0.43917,60.23165 -32.00521,65.93088 0,0 99.33406,134.45153 126.42517,144.48591 27.0911,10.03295 201.42595,-3.26195 201.42595,-3.26195"
       style="fill:#3a3a3c;fill-opacity:1;fill-rule:evenodd;stroke:none"
       id="path82" /><path
       d="m 391.61899,346.88544 c 3.63474,0.63262 8.17604,1.11415 13.45447,1.46435 39.44556,-3.24642 118.78995,-9.98636 122.61674,-11.97036 5.10332,-2.64627 19.31468,-17.35752 19.31468,-17.35752 0,0 -121.15945,13.04356 -126.67793,16.05415 -3.67711,2.00518 -18.93342,8.0179 -28.70796,11.80938"
       style="fill:#363639;fill-opacity:1;fill-rule:evenodd;stroke:none"
       id="path84" /><path
       d="m 678.46418,546.76938 c 5.51848,-1.5053 48.16244,-2.00659 61.70729,-18.06074 13.54626,-16.05556 13.54767,-35.11888 -5.01436,-74.75225 -18.56345,-39.63337 -54.36297,-34.71644 -54.36297,-34.71644 0,0 -61.02524,20.66888 -80.59128,31.70585 -19.56603,11.03837 -26.08851,45.15184 -14.54885,65.72188 11.53826,20.56862 92.81017,30.1017 92.81017,30.1017"
       style="fill:#3d4c56;fill-opacity:1;fill-rule:evenodd;stroke:none"
       id="path86" /><path
       d="m 678.46418,546.76938 c 5.01154,-1.36691 40.63172,-1.90774 57.28319,-14.01508 3.41021,-4.11344 5.66251,-8.41893 6.40104,-12.56908 3.26194,-18.3121 -4.2603,-51.92569 -20.31586,-71.74166 -14.34127,-17.70348 -32.88777,-22.79551 -50.80871,-25.82587 -5.55379,1.94446 -13.00261,4.58932 -21.08263,7.56037 -22.27444,23.00309 -52.53006,83.98597 -52.53006,83.98597 0,0 17.19794,13.54061 37.99674,25.04215 22.12617,5.10615 43.05629,7.5632 43.05629,7.5632"
       style="fill:#37424c;fill-opacity:1;fill-rule:evenodd;stroke:none"
       id="path88" /><path
       d="m 644.11065,562.93085 c -3.01059,0.5027 -61.93322,-4.39869 -64.44111,-4.39869 -2.5093,0 -23.35328,-64.83509 -30.37706,-102.96457 -7.02378,-38.12807 -8.04472,-50.61102 -28.11205,-78.70471 -5.4267,-7.59709 -13.75102,-9.07274 -11.96613,-12.0805 0,0 70.71648,-11.8927 110.31454,-83.8024 11.94636,-21.69406 85.77086,207.20567 85.28651,221.74605 -1.00259,30.1017 3.00918,42.14267 -8.02637,45.15326 -11.03696,3.00918 -52.67833,15.05156 -52.67833,15.05156"
       style="fill:#ccebcb;fill-opacity:1;fill-rule:evenodd;stroke:none"
       id="path90" /><path
       d="m 644.11065,562.93085 c -1.50812,0.25135 -18.15535,-0.10167 -33.60935,-1.26666 -1.59002,-0.11861 -3.08826,-0.20899 -3.65875,-1.11273 -6.21464,-6.5719 -8.97388,-13.23418 -6.76677,-18.34033 4.29419,-9.93411 25.75385,-10.21653 47.93085,-0.63121 8.92023,3.85503 16.59639,8.71971 22.30974,13.80467 -0.54224,1.57308 -5.14003,3.45682 -7.83714,4.23206 -9.86351,2.83691 -18.36858,3.3142 -18.36858,3.3142"
       style="fill:#51a7ac;fill-opacity:1;fill-rule:evenodd;stroke:none"
       id="path92" /><path
       d="m 511.91,368.71083 c -2.19581,-1.4827 -3.51754,-2.54319 -2.6957,-3.92845 0,0 70.71648,-11.8927 110.31454,-83.8024 10.21371,-18.54791 65.65269,146.06605 81.21684,203.29416 -2.01224,10.7842 -3.6997,17.67383 -3.6997,17.67383 0,0 -18.18217,-72.96172 -36.18219,-99.09119 -18.00002,-26.12946 -23.41824,-26.73243 -33.65172,-30.94613 -10.23489,-4.2137 0,-36.72303 -14.44859,-35.51993 -14.44859,1.20452 -48.98711,31.89507 -73.44747,33.1123 -10.38175,0.51683 -19.89365,-0.0113 -27.40601,-0.79219"
       style="fill:#b4ddb9;fill-opacity:1;fill-rule:evenodd;stroke:none"
       id="path94" /><path
       d="m 658.97016,510.4728 c -4.21793,-2.96117 -26.32998,-9.55425 -26.32998,-9.55425 0,0 -4.77431,-3.23936 -3.52036,-21.55145 1.25394,-18.31068 14.04755,-35.45779 18.31209,-39.38201 2.17322,-2.00095 4.4354,-3.51189 6.0692,-3.45117 9.04025,0.33608 19.16782,18.48154 20.5192,27.78304 2.93575,20.18453 -15.05015,46.15584 -15.05015,46.15584"
       style="fill:#3d4c56;fill-opacity:1;fill-rule:evenodd;stroke:none"
       id="path96" /><path
       d="m 694.90807,648.52943 c 1.05484,-4.94376 2.75218,-18.80915 -4.2716,-31.10006 -7.02378,-12.29231 -18.10734,-24.19348 -18.10734,-24.19348 l 1.75665,9.28172 c 0,0 -0.59732,-0.50129 -4.76724,-5.01718 -4.16852,-4.51589 -10.53567,-7.77643 -10.53567,-7.77643 0,0 0.50271,11.78961 1.25536,25.08452 0.75265,13.2949 2.00659,27.09111 2.00659,27.09111 l 32.66325,6.6298"
       style="fill:#9e473a;fill-opacity:1;fill-rule:evenodd;stroke:none"
       id="path98" /><path
       d="m 670.70046,629.65532 c 0,0 -11.53825,-38.12807 -12.03955,-52.67692 -0.5027,-14.54885 1.00259,-23.57922 1.00259,-23.57922 0,0 -7.52507,-7.52507 -26.0871,-12.04096 -18.56204,-4.51448 -24.08052,-0.5013 -26.08852,5.01719 -2.00659,5.51848 -0.5013,11.03696 3.01059,12.04096 3.51189,1.00259 3.51189,-1.004 12.54226,18.56203 9.03037,19.56604 9.03037,29.599 9.03037,29.599 l 38.62936,23.07792"
       style="fill:#edb6a5;fill-opacity:1;fill-rule:evenodd;stroke:none"
       id="path100" /><path
       d="m 573.15271,727.92325 c -27.25209,-28.63877 -24.1836,-73.47995 -7.0492,-110.67039 1.44034,-3.1278 14.08004,-26.94142 15.58251,-29.42672 9.80278,-16.20242 16.79691,-19.83998 27.31704,-19.91059 17.8108,-0.1172 41.54535,16.34222 59.27001,33.79717 15.17441,14.94565 13.89081,21.15464 22.03438,38.09841 8.1817,17.02709 30.11441,46.53853 19.0252,72.03961 -11.08779,25.5025 -23.48461,37.56465 -67.14104,38.14361 -43.65785,0.58037 -69.0389,-22.0711 -69.0389,-22.0711"
       style="fill:#facbbb;fill-opacity:1;fill-rule:evenodd;stroke:none"
       id="path102" /><path
       d="m 676.72871,669.69961 c -0.75265,-0.24994 -25.46154,-13.29491 -25.46154,-13.29491 0,0 0.1285,-22.1996 -3.76042,-30.22597 -3.88751,-8.02636 -27.57263,-9.60933 -33.72797,-7.62674 -6.15534,1.98259 -18.82327,36.85012 -18.82327,36.85012 l -1.90634,-5.77125 c 0,0 -3.73782,5.64557 -8.37798,5.77125 -4.64156,0.12427 -11.4973,-6.52107 -11.4973,-6.52107 l -1.25959,15.54156 c 0,0 58.59643,-6.79361 60.75977,-5.462 2.16474,1.33161 44.51499,19.34433 46.31259,18.88964 1.79901,-0.4547 -2.25795,-8.15063 -2.25795,-8.15063"
       style="fill:#fabea9;fill-opacity:1;fill-rule:evenodd;stroke:none"
       id="path104" /><path
       d="m 573.13859,727.90913 c -10.49331,-11.03414 -16.48484,-24.47167 -18.91083,-38.9485 46.27729,-25.49403 100.17709,56.69716 127.47013,17.71054 5.26712,-7.52507 0.50129,-16.8068 -0.62697,-17.93648 0,0 25.0365,30.02545 -11.16123,58.55831 -7.54908,1.66345 -16.62181,2.55449 -27.71808,2.70135 -37.51804,0.49847 -61.53925,-16.16006 -67.55338,-20.85528 l -0.0254,-0.0212 c -0.49706,-0.4095 -0.98706,-0.81195 -1.47423,-1.20875"
       style="fill:#fabea9;fill-opacity:1;fill-rule:evenodd;stroke:none"
       id="path106" /><path
       d="m 587.74392,578.95252 c 6.95035,-8.73948 13.0252,-10.98189 21.25914,-11.03697 17.8108,-0.1172 41.54535,16.34222 59.27001,33.79717 15.17441,14.94565 13.89081,21.15464 22.03438,38.09841 l -6.16804,2.68299 c 0,0 -9.67994,-29.54392 -20.59405,-38.93438 -10.91411,-9.39045 -34.36765,-23.81645 -45.40461,-27.57969 -11.03696,-3.76183 -26.17748,-0.82608 -30.39683,2.97247"
       style="fill:#fabea9;fill-opacity:1;fill-rule:evenodd;stroke:none"
       id="path108" /><path
       d="m 660.72823,718.73896 c -41.67526,-8.5093 -48.06783,-19.75667 -75.10528,-28.25609 -22.9466,-4.93669 -76.46089,17.57498 -72.60022,40.76446 1.88657,-11.01155 16.47496,-15.96942 26.33564,-17.34481 -7.42623,8.10404 -20.39353,28.62606 -19.73973,40.28435 39.33965,-29.38436 82.80969,40.12054 152.22421,9.72653 21.10381,-9.24077 31.41637,-29.90118 31.41637,-29.90118 0,0 14.02637,3.18287 19.01108,-11.16405 4.98612,-14.34692 7.69593,-50.83978 -5.22759,-76.64588 -21.18148,-42.29235 -36.36295,-47.94498 -36.33753,-47.92097 2.72818,2.41045 5.39845,8.93435 7.43752,13.30338 2.03907,4.36762 2.49377,5.84467 2.49377,5.84467 -4.00754,-4.81666 -5.29254,-5.59191 -8.47118,-7.92187 -3.17863,-2.33137 -7.31749,-5.28407 -4.71499,-2.65898 2.60249,2.6265 5.19087,7.14098 8.06873,17.13017 2.87926,9.98777 4.99459,16.47495 4.99459,16.47495 0,0 5.73594,2.39633 10.18688,7.2596 35.73456,39.0544 -2.19441,57.85508 -13.28079,30.97437 -2.17604,-5.27701 -5.53966,-25.80468 -4.27583,-31.28221 1.26382,-5.47753 1.66627,-8.11957 0.44339,-9.76184 -5.35326,-7.18334 -16.8774,-14.84115 -16.79832,-14.72112 16.35493,24.48296 3.42999,44.51075 6.75124,54.31495 4.63028,13.66911 1.15934,5.86586 6.02543,19.3288 4.86609,13.46295 -18.83739,22.17277 -18.83739,22.17277"
       style="fill:#9e473a;fill-opacity:1;fill-rule:evenodd;stroke:none"
       id="path110" /><path
       d="m 726.26936,697.96699 c 0.72864,-16.25466 -1.33302,-36.00286 -9.22665,-51.7647 -21.18148,-42.29235 -36.36295,-47.94498 -36.33753,-47.92097 8.96965,4.83926 26.03204,31.98262 29.4126,42.3686 3.19699,9.82397 3.84514,16.72348 2.55166,24.3008 7.2483,15.86634 0.24853,25.68325 -8.5785,26.30739 -6.2217,14.02779 -12.78514,19.62817 -12.78514,19.62817 0,0 5.26713,-0.75265 12.29091,-7.27372 7.02378,-6.52248 14.8002,-25.08451 14.8002,-23.58063 0,1.5053 2.25654,12.79502 -3.51189,25.33587 -5.76983,12.54226 -11.43093,18.27255 -11.43093,18.27255 5.99012,-5.58343 19.88375,-17.81221 22.81527,-25.67336"
       style="fill:#944035;fill-opacity:1;fill-rule:evenodd;stroke:none"
       id="path112" /><path
       d="m 539.35837,713.90252 c -7.42623,8.10404 -20.39353,28.62606 -19.73973,40.28435 36.7075,-48.70751 65.14293,-34.828 75.07139,-37.23421 0,0 -25.71996,-7.72701 -55.33166,-3.05014"
       style="fill:#944035;fill-opacity:1;fill-rule:evenodd;stroke:none"
       id="path114" /><path
       d="m 660.72823,718.73896 c -41.67526,-8.5093 -48.06783,-19.75667 -75.10528,-28.25609 -22.64159,-4.87033 -75.03467,16.97907 -72.71883,39.83812 0.0988,-0.29654 2.28336,-6.74842 8.71406,-15.3834 6.58461,-8.84256 21.82398,-14.48672 41.57923,-18.62558 19.75385,-4.13886 64.15163,22.76444 88.42137,28.4086 24.26832,5.64416 45.33118,7.9487 44.02217,6.77384 -1.30902,-1.17487 -3.76183,-2.07014 -11.47613,-5.83197 -7.71288,-3.76324 -6.58461,-8.27772 -6.58461,-8.27772 0,0 5.83196,-8.27772 7.14804,-18.43636 1.31749,-10.15863 -2.44575,-12.79361 -5.07932,-26.71549 -2.63497,-13.92188 1.31608,-23.13864 -1.31749,-32.54604 -2.63356,-9.40599 -11.46623,-16.72348 -11.46623,-16.72348 l -0.0127,-0.008 -0.001,0 -0.0621,-0.0325 c 13.91623,34.45943 3.42999,44.51075 6.75124,54.31495 4.63028,13.66911 1.15934,5.86586 6.02543,19.3288 4.86609,13.46295 -18.83739,22.17277 -18.83739,22.17277"
       style="fill:#944035;fill-opacity:1;fill-rule:evenodd;stroke:none"
       id="path116" /><path
       d="m 571.156,670.62312 c -9.2789,1.4361 -34.56252,3.41445 -34.56393,3.41728 -0.003,0.003 2.09838,-30.90519 7.06331,-41.69362 4.96494,-10.78702 18.30645,-13.88234 24.95178,-13.42764 9.91152,0.67639 10.18688,21.27185 9.12357,36.35729 0.38833,4.19535 10.49754,4.13604 11.75572,-0.77947 0.58884,-7.42482 1.84138,-16.46084 4.48906,-23.44225 5.42811,-14.31727 22.16853,-18.29232 33.47944,-17.74302 11.31232,0.54931 19.27091,11.10757 20.15629,20.95978 0.88398,9.85221 -0.11438,24.47167 -0.11438,24.47167 l 46.83225,23.39705 -0.25418,7.46153 -48.46604,-22.75314 c -0.98847,0.31913 -39.04029,1.11556 -50.05324,1.34008 -2.96258,0.0593 -6.58603,0.8049 -6.58038,-1.4714 0,-0.25559 0.003,-0.54366 0.006,-0.85574 -2.46694,2.14922 -10.16993,1.984 -12.19912,-0.21322 -0.0452,0.48152 -0.15109,1.35844 -0.25983,2.20287 -0.32195,2.48812 -2.57002,2.33844 -5.36597,2.77195"
       style="fill:#434e56;fill-opacity:1;fill-rule:evenodd;stroke:none"
       id="path118" /><path
       d="m 593.25816,664.10346 c 0,0 -1.60414,-17.24596 1.98683,-27.45966 8.05037,-22.90283 42.52816,-28.23491 47.67103,-2.30737 1.65498,8.3455 -1.51801,25.48837 -1.59426,26.59546 -0.0748,1.10708 -48.0636,3.17157 -48.0636,3.17157"
       style="fill:#bed4d2;fill-opacity:1;fill-rule:evenodd;stroke:none"
       id="path120" /><path
       d="m 571.69825,667.10699 c -1.83291,0.76536 -33.0078,4.47494 -33.0078,4.47494 0,0 2.04895,-25.28362 3.97082,-30.6044 3.43846,-9.53026 7.87527,-15.96236 19.11698,-17.9972 16.1883,-2.93151 10.99037,29.18384 9.92,44.12666"
       style="fill:#bed4d2;fill-opacity:1;fill-rule:evenodd;stroke:none"
       id="path122" /><path
       d="m 581.0774,645.45529 c -0.42221,-3.58955 -2.51071,-13.74678 -4.49894,-17.22054 -1.98824,-3.47376 -4.06685,-5.61874 -3.21676,-6.67358 0.85149,-1.05483 3.62344,-2.53471 5.486,-3.74206 1.86256,-1.20875 14.26643,-0.3615 14.26643,-0.3615 0,0 -5.11462,3.21112 -9.08968,4.38598 -3.97364,1.17628 -8.28619,0.7696 -8.28619,0.7696 0,0 3.60085,5.92092 4.59073,10.99601 0.98847,5.07508 0.74841,11.84609 0.74841,11.84609"
       style="fill:#f89a82;fill-opacity:1;fill-rule:evenodd;stroke:none"
       id="path124" /><path
       d="m 716.85066,682.93521 c 2.12945,-10.75031 -1.57025,-21.96096 -8.04048,-30.74986 -6.47024,-8.7889 -10.18547,-11.29114 -15.86493,-11.89552 -5.67946,-0.60437 -6.70605,4.5286 -7.57167,15.63617 -3.54154,45.42438 28.1756,43.67479 31.47708,27.00921"
       style="fill:#facbbb;fill-opacity:1;fill-rule:evenodd;stroke:none"
       id="path126" /><path
       d="m 632.99885,611.92219 c -5.20358,-16.79126 -16.55544,-25.90636 -31.59853,-26.68584 -12.442,-0.64533 -19.15794,6.77949 -24.67783,22.23914 -0.49847,1.39515 24.35305,-12.96165 56.27636,4.4467"
       style="fill:#d5ad9d;fill-opacity:1;fill-rule:evenodd;stroke:none"
       id="path128" /><path
       d="m 632.99885,611.92219 c -0.60014,-1.93599 -1.28219,-3.76889 -2.04331,-5.50012 -5.91245,-12.58463 -16.12051,-19.42342 -29.05957,-20.09416 -12.11439,-0.62698 -18.80068,6.3968 -24.24008,21.03603 4.78842,-1.54343 27.34528,-10.71077 55.34296,4.55825"
       style="fill:#67281e;fill-opacity:1;fill-rule:evenodd;stroke:none"
       id="path130" /><path
       d="m 617.45871,591.34368 c -4.51731,-2.67169 -9.70536,-4.17558 -15.42577,-4.47212 -5.976,-0.30925 -10.63027,1.24406 -14.46694,4.65428 4.92257,-0.86279 13.70865,-2.07014 21.25066,-1.33867 3.49918,0.3389 6.36433,0.75547 8.64205,1.15651"
       style="fill:#e9eae9;fill-opacity:1;fill-rule:evenodd;stroke:none"
       id="path132" /><path
       d="m 631.63194,610.70355 c -0.89951,-2.8948 -1.96988,-5.50295 -3.49777,-8.10686 -9.97365,-5.0652 -32.16901,-8.59403 -45.8,-3.39892 -1.40504,2.47117 -2.03483,4.16004 -3.24924,7.45729 4.7503,-2.50365 26.77904,-9.41587 52.54701,4.04849"
       style="fill:#e9eae9;fill-opacity:1;fill-rule:evenodd;stroke:none"
       id="path134" /><path
       d="m 476.22486,385.7012 c -9.04449,4.36903 -26.83834,19.06474 -31.85553,21.07133 -5.01718,2.0066 -16.55685,8.78043 -17.55944,4.51589 -1.004,-4.26453 9.84091,-11.41681 10.65711,-13.43611 0.8176,-2.02072 22.07392,-15.03461 22.07392,-15.03461 l 16.68394,2.8835"
       style="fill:#f5c3b0;fill-opacity:1;fill-rule:evenodd;stroke:none"
       id="path136" /><path
       d="m 673.40322,482.8338 c -11.38151,-7.99106 -35.50721,-25.89647 -65.94217,-46.10501 -30.46179,-27.55287 -64.85062,-51.22387 -92.60541,-66.00713 -2.02778,-1.08025 -3.96094,-4.63733 -5.64134,-5.93928 -15.18711,-15.68842 -37.53216,-1.95859 -46.75599,4.44952 -22.04709,15.31562 -26.916,13.73124 -22.88023,20.55027 4.03719,6.81761 -5.60744,15.8508 11.94777,9.76607 17.55662,-6.08615 26.8454,-10.01178 38.70844,-11.15276 6.82608,1.30337 58.40863,42.05653 96.09753,69.15894 35.55099,32.11817 67.79202,53.38579 67.31191,53.9478 -1.55472,1.82443 19.75949,-28.66842 19.75949,-28.66842"
       style="fill:#facbbb;fill-opacity:1;fill-rule:evenodd;stroke:none"
       id="path138" /><path
       d="m 722.8775,533.33044 c -12.54085,16.05274 -22.77715,13.59427 -40.33518,6.0692 -17.55803,-7.52366 -51.14761,-38.95838 -51.14761,-38.95838 41.09206,-4.1078 29.70207,-63.62775 20.85951,-64.38322 5.34762,-2.58979 95.34206,65.6301 70.62328,97.2724"
       style="fill:#51a7ac;fill-opacity:1;fill-rule:evenodd;stroke:none"
       id="path140" /><path
       d="m 308.56218,382.85723 -0.35302,10.73054 96.87701,-8.76631 142.1164,-48.4731 -66.77813,0.1045 -50.00946,6.65945 -121.8528,39.74492"
       style="fill:#7a7c81;fill-opacity:1;fill-rule:evenodd;stroke:none"
       id="path142" /><path
       d="m 376.45022,382.95608 4.73195,4.62462 105.17591,-36.12289 -69.17164,7.17346 -40.73622,24.32481"
       style="fill:#505256;fill-opacity:1;fill-rule:evenodd;stroke:none"
       id="path144" /><path
       d="m 308.57207,382.57905 120.89962,-44.64067 1.11839,10.63028 -122.38092,45.01911 0.36291,-11.00872"
       style="fill:#65686c;fill-opacity:1;fill-rule:evenodd;stroke:none"
       id="path146" /><path
       d="m 419.92873,346.0636 0.94046,11.28831 -103.65649,35.9958 c -3.12498,0.0579 -4.0146,-8.02213 -1.03225,-9.11792 L 419.92873,346.0636"
       style="fill:#3a3a3c;fill-opacity:1;fill-rule:evenodd;stroke:none"
       id="path148" /><path
       d="m 420.86919,357.35191 c 0,0 -3.24076,-0.86844 -3.55425,-5.66534 -0.31349,-4.79831 1.80749,-5.37727 2.61379,-5.62297 l 0.94046,11.28831"
       style="fill:#505256;fill-opacity:1;fill-rule:evenodd;stroke:none"
       id="path150" /><path
       d="m 438.11232,352.86426 -21.40882,131.72337 -127.16652,46.79835 -6.70888,-3.83102 20.59546,-132.18936 127.07614,-46.24763 7.61262,3.74629"
       style="fill:#505256;fill-opacity:1;fill-rule:evenodd;stroke:none"
       id="path152" /><path
       d="m 707.6579,684.01264 c 7.20735,-10.66276 2.69852,-29.8913 -8.78184,-36.11442 -6.96164,-3.77313 -7.95293,5.23889 -7.04495,7.36551 0.90939,2.12803 4.42269,7.7157 3.37915,9.21959 -1.04354,1.50388 -3.87198,-0.15251 -4.80255,1.23841 -3.64886,5.44646 11.18947,27.25914 17.25019,18.29091"
       style="fill:#efb097;fill-opacity:1;fill-rule:evenodd;stroke:none"
       id="path154" /><path
       d="m 693.76003,647.65393 c -2.29466,1.70722 -2.53471,6.19064 -1.92892,7.6098 0.90939,2.12803 4.42269,7.7157 3.37915,9.21959 -1.04354,1.50388 -3.87198,-0.15251 -4.80255,1.23841 -2.33561,3.48788 2.9061,13.68323 8.57144,18.21324 0.53095,-0.34455 1.02659,-0.83314 1.47423,-1.49541 6.75265,-9.98919 3.22099,-27.49779 -6.69335,-34.78563"
       style="fill:#eca587;fill-opacity:1;fill-rule:evenodd;stroke:none"
       id="path156" /><path
       d="m 426.62914,402.47975 c -9.3721,-8.49094 -18.43918,-27.38341 -10.72206,-25.7722 8.12521,1.69451 11.95906,7.99812 19.68041,14.44011 2.96117,-1.00117 9.15464,-4.96211 11.46342,-3.98211 2.30737,0.97999 10.02731,9.27325 5.3928,11.66393 -11.65405,6.01413 -17.80515,10.90564 -25.81457,3.65027"
       style="fill:#facbbb;fill-opacity:1;fill-rule:evenodd;stroke:none"
       id="path158" /><path
       d="m 413.13372,380.5541 c -0.46458,-2.73523 0.27112,-4.36903 2.77336,-3.84655 8.12521,1.69451 11.95906,7.99812 19.68041,14.44011 2.15769,-0.73005 6.02825,-3.02753 8.86374,-3.84373 3.16311,2.82279 4.28855,5.14851 4.28855,5.14851 -1.32314,0.52389 5.74159,5.205 4.70087,5.60039 -13.14381,5.16263 -23.39988,-8.65899 -29.28268,-12.87411 -5.88422,-4.21511 -9.04449,-4.32102 -11.02425,-4.62462"
       style="fill:#f4b7a0;fill-opacity:1;fill-rule:evenodd;stroke:none"
       id="path160" /><path
       d="m 437.31167,395.7737 c -9.3721,-8.48954 -18.43919,-27.38341 -10.72066,-25.77221 8.12522,1.69452 11.95765,7.99954 19.67901,14.44153 2.96258,-1.00259 9.15604,-4.96211 11.46341,-3.98353 2.30878,0.98 10.02731,9.27325 5.39281,11.66535 -11.65264,6.01271 -17.80374,10.90422 -25.81457,3.64886"
       style="fill:#facbbb;fill-opacity:1;fill-rule:evenodd;stroke:none"
       id="path162" /><path
       d="m 423.81765,373.84805 c -0.46458,-2.73524 0.27113,-4.36904 2.77336,-3.84656 8.12522,1.69452 11.95765,7.99954 19.67901,14.44153 2.15768,-0.73005 6.02825,-3.02895 8.86515,-3.84514 3.1631,2.82419 4.28854,5.14992 4.28854,5.14992 -1.32313,0.52248 5.74018,5.20358 4.70088,5.60038 -13.14381,5.16122 -23.39988,-8.6604 -29.2841,-12.87551 -5.8828,-4.21511 -9.04449,-4.32102 -11.02284,-4.62462"
       style="fill:#f4b7a0;fill-opacity:1;fill-rule:evenodd;stroke:none"
       id="path164" /><path
       d="m 449.85534,390.12954 c -6.27396,-5.70346 -12.64817,-16.36904 -13.49543,-21.92565 -0.41233,-2.69852 1.61121,-3.88045 4.09932,-3.36644 8.12522,1.68322 10.63169,7.51801 18.35305,13.96 2.96258,-1.00118 9.15604,-4.96211 11.46341,-3.98212 2.30878,0.98 10.02731,9.27325 5.39422,11.66394 -11.65405,6.01412 -17.82069,10.91834 -25.81457,3.65027"
       style="fill:#facbbb;fill-opacity:1;fill-rule:evenodd;stroke:none"
       id="path166" /><path
       d="m 436.35991,368.20389 c -0.46458,-2.73523 2.02777,-4.46364 4.5286,-3.94117 8.12521,1.69452 8.87363,6.95318 16.59498,13.39517 2.30313,-0.74559 8.39069,-2.46553 7.93741,-3.01624 0.57472,0.51259 12.50272,10.58367 11.24595,11.06096 -12.44341,5.44929 -26.06593,-12.92352 -31.95014,-17.13864 -5.8828,-4.21511 -7.88233,-2.00094 -8.3568,-0.36008"
       style="fill:#f4b7a0;fill-opacity:1;fill-rule:evenodd;stroke:none"
       id="path168" /><path
       d="m 465.87418,383.34865 c -8.5785,-7.77219 -16.87881,-25.06616 -9.81408,-23.59193 7.43752,1.55189 10.94517,7.32173 18.01413,13.21865 2.71123,-0.91645 8.38081,-4.54131 10.49331,-3.64463 2.11109,0.89669 9.17864,8.48813 4.93669,10.67688 -10.6684,5.50436 -16.29844,9.98212 -23.63005,3.34103"
       style="fill:#facbbb;fill-opacity:1;fill-rule:evenodd;stroke:none"
       id="path170" /><path
       d="m 461.19166,364.69483 c -2.25794,-1.30902 -5.46623,-2.0998 -7.78913,-2.53472 -0.0523,-1.81314 0.73288,-2.80443 2.65757,-2.40339 3.22805,0.67357 5.71476,2.14215 8.07579,4.06966 1.30901,1.07038 2.5799,2.28337 3.91716,3.57967 0.90656,0.87974 1.84279,1.79902 2.84114,2.73806 0.98847,0.92916 0.11862,0.21041 1.261,1.16216 0.01,-10e-4 10.40717,-5.88986 8.8821,-1.46011 -0.43916,1.27371 -7.86539,6.54508 -7.5166,6.10027 0.34879,-0.44482 -2.50082,-2.88916 -5.50153,-5.53402 -0.68205,-0.60155 -1.3768,-1.20734 -2.05178,-1.79195 -1.31467,-1.14239 -2.55025,-2.20711 -3.46812,-3.00636 -0.37844,-0.33184 -0.82184,-0.63827 -1.3076,-0.91927"
       style="fill:#f4b7a0;fill-opacity:1;fill-rule:evenodd;stroke:none"
       id="path172" /><path
       d="m 545.86108,325.63054 1.34149,10.71782 -116.66898,12.10169 -1.11979,-10.62887 116.44728,-12.19064"
       style="fill:#505256;fill-opacity:1;fill-rule:evenodd;stroke:none"
       id="path174" /><path
       d="m 438.11232,352.86426 c -0.62697,-0.25135 -7.52224,-4.2956 -7.52224,-4.2956 l -21.71102,131.55109 7.82444,4.46788 21.40882,-131.72337"
       style="fill:#65686c;fill-opacity:1;fill-rule:evenodd;stroke:none"
       id="path176" /><path
       d="M 430.59008,348.56866 C 429.96311,348.31731 303.42356,395.3656 303.42356,395.3656 L 282.65582,527.45611 408.87906,480.11975 430.59008,348.56866"
       style="fill:#8e9194;fill-opacity:1;fill-rule:evenodd;stroke:none"
       id="path178" /><path
       d="m 612.37798,582.7327 c -3.7929,-1.09437 -12.51543,-1.1904 -16.58792,-0.56484 4.43963,-3.25488 14.47683,-2.57849 18.25278,1.0379 l -1.66486,-0.47306"
       style="fill:#f89a82;fill-opacity:1;fill-rule:evenodd;stroke:none"
       id="path180" /><path
       d="m 529.22656,388.94762 c -11.94494,-8.56015 -19.57027,-14.02073 -19.57027,-14.02073 0,0 -3.59661,-5.39422 -8.53049,-9.3608 -2.48246,-1.99671 -5.30384,-3.63192 -8.17605,-4.03437 -5.89268,-0.82607 -12.89104,-0.49988 -16.69665,-0.21322 10.32385,-4.52437 23.14006,-6.68205 32.9612,3.46388 1.42905,1.10849 3.04166,3.84796 4.74042,5.30666 0.29795,0.25418 0.59873,0.47023 0.90092,0.63262 27.75479,14.78326 62.14362,38.45426 92.60541,66.00713 3.22382,2.14074 6.37562,4.25606 9.45117,6.33467 6.80491,4.60344 13.22572,9.03602 19.17913,13.2003 9.06708,6.34032 17.04967,12.05649 23.65688,16.80256 -0.52813,2.76065 -1.28642,5.4747 -2.31725,8.05884 -6.5705,-4.76865 -15.02191,-10.87457 -24.55216,-17.74301 -7.34291,-5.29255 -15.32691,-11.03838 -23.58204,-16.97343 -28.49897,-20.49237 -60.2373,-43.24833 -80.07022,-57.4611"
       style="fill:#fab9a1;fill-opacity:1;fill-rule:evenodd;stroke:none"
       id="path182" /><path
       d="m 518.35905,477.57656 c -27.62629,-21.25067 -64.76448,-48.9631 -86.8031,-65.33356 2.52907,-0.70746 5.66817,-2.1718 8.42882,-3.47658 17.69077,12.1271 36.00851,26.35823 53.09066,41.80941 10.35915,6.87833 19.98825,13.48977 28.63171,19.53497 9.06567,6.34032 17.04967,12.05649 23.65547,16.80255 -0.62838,3.28737 -1.58437,6.50837 -2.93575,9.5232 -6.2443,-5.04826 -14.59686,-11.57498 -24.06781,-18.85999"
       style="fill:#fab9a1;fill-opacity:1;fill-rule:evenodd;stroke:none"
       id="path184" /><path
       d="m 674.2293,466.14562 c -4.41563,-2.97388 -9.00636,-5.77124 -13.67476,-8.43729 -0.75406,-10.35774 -3.90304,-19.0718 -7.05343,-21.17441 -0.41798,-0.27818 -0.83455,-0.44058 -1.24689,-0.47588 0.43917,-0.21181 1.44458,0.0508 2.90893,0.73006 1.35137,0.62556 3.09249,1.60696 5.13862,2.89621 8.76066,5.51848 23.09911,16.68536 36.25704,29.856 21.0911,21.11087 39.14337,47.37307 26.31869,63.79013 -1.86538,2.38645 -3.67852,4.3648 -5.47329,5.97741 -0.76395,-5.6964 -1.95717,-13.07038 -3.80843,-21.70536 -1.95152,-9.1038 -5.60886,-17.10899 -10.49331,-24.24714 -7.37539,-10.77573 -17.54673,-19.57734 -28.87317,-27.20973"
       style="fill:#4c9aa0;fill-opacity:1;fill-rule:evenodd;stroke:none"
       id="path186" /><path
       d="m 556.69894,643.88504 c 5.3349,-0.27819 10.91269,-1.00542 16.63452,-2.19299 0.0508,3.67145 -0.14263,7.54625 -0.4194,11.29537 -6.39963,1.22006 -12.60439,1.85832 -18.47024,1.93317 -4.93388,0.0621 -9.62769,-0.27536 -13.99531,-1.00401 0.4787,-4.00188 1.01812,-7.84279 1.56602,-10.47071 4.60626,0.55919 9.53166,0.70888 14.68441,0.43917"
       style="fill:#ffffff;fill-opacity:1;fill-rule:evenodd;stroke:none"
       id="path188" /><path
       d="m 593.21015,647.33338 c 0.32055,-3.75759 0.9334,-7.55473 2.03484,-10.68958 0.22311,-0.63545 0.4674,-1.25818 0.73005,-1.8668 1.10709,-0.44763 2.21417,-0.9108 3.32126,-1.39092 10.28431,-4.46223 19.53779,-9.91999 27.43566,-15.94965 3.44269,0.62415 6.65239,2.05037 9.32691,4.3535 -9.33539,8.62228 -21.35376,16.47637 -35.25728,22.50885 -2.53189,1.09861 -5.06519,2.10968 -7.59144,3.0346"
       style="fill:#ffffff;fill-opacity:1;fill-rule:evenodd;stroke:none"
       id="path190" /><path
       d="m 563.08021,293.13391 c -42.3686,6.86986 -110.4388,11.9986 -140.57581,14.05886 -9.47377,0.64815 -15.19841,0.9927 -15.19841,0.9927 0,0 -61.70588,-101.59201 -84.65813,-125.2969 -3.16875,-3.27325 -6.24571,-6.18782 -9.19276,-8.78043 -9.95247,-8.75077 -18.44624,-13.83292 -24.14829,-16.65288 0.70322,-7.30761 1.07743,-14.95977 1.78913,-22.49049 0,0 26.19019,5.22618 37.22715,27.3001 11.03696,22.07392 89.29969,125.42258 89.29969,125.42258 0,0 3.36785,-0.64392 9.21112,-1.69169 34.48909,-6.18782 155.24892,-26.47967 179.15292,-11.79526 5.40692,3.32125 8.85244,7.31043 10.73053,11.70065 -2.42598,4.09085 -4.95364,7.97835 -7.56037,11.66675 -8.77337,-5.15698 -22.83928,-8.20146 -46.07677,-4.43399"
       style="fill:#343438;fill-opacity:1;fill-rule:evenodd;stroke:none"
       id="path192" /><path
       d="m 101.17153,330.45709 c 0,0 220.99198,1.25394 226.00917,1.25394 1.6804,0 16.27443,-2.16616 34.94379,-5.04825 5.40833,5.43517 10.3535,9.98353 14.60392,13.29773 l -67.43053,14.70277 c 0,0 -110.63932,-5.85739 -159.42308,-3.04731 -3.67428,0.21323 -6.99695,0.47305 -9.89599,0.78936 -5.50577,0.60014 -10.34927,1.14945 -14.59686,1.64792 -5.27842,0.6185 -9.63757,1.16216 -13.20735,1.63521 -2.0546,-6.08897 -4.37751,-11.60745 -6.35727,-15.92 -2.62368,-5.71476 -4.6458,-9.31137 -4.6458,-9.31137"
       style="fill:#2f2d2d;fill-opacity:1;fill-rule:evenodd;stroke:none"
       id="path194" /><path
       d="m 392.40694,362.40723 c -37.95438,29.21631 -63.3891,82.7772 -63.3891,144.02415 0,1.21158 0.0155,2.41892 0.0353,3.62485 l 79.82592,-29.93648 21.71102,-131.55109 c -0.22735,-0.0918 -16.94377,6.01272 -38.18314,13.83857"
       style="fill:#9b9c9b;fill-opacity:1;fill-rule:evenodd;stroke:none"
       id="path196" /><path
       d="m 695.95726,738.60012 c -46.33095,45.19845 -86.4642,24.6736 -112.12768,14.04615 30.47026,9.62204 72.435,12.10027 96.57482,-12.03955 -69.60233,21.77314 -56.07301,5.65404 -115.3882,0.75264 -15.17583,-1.25394 -33.86495,4.64016 -33.86495,4.64016 21.51756,-24.76538 74.05468,0.23017 95.6965,-0.12426 15.3015,-0.25136 36.87412,-8.27773 35.62018,-8.52908 -1.25394,-0.25135 -12.2909,2.50789 -37.62677,-2.75924 -25.33446,-5.26713 -33.11089,-8.27772 -48.91368,-7.27513 -15.8042,1.004 -21.57263,3.01059 -21.57263,3.01059 0,0 11.53826,-7.02377 27.59241,-8.52907 16.05414,-1.50389 54.23022,5.45776 51.42297,4.26454 -9.15746,-3.88892 -22.7023,-10.94377 -83.02856,-19.81598 30.26268,-19.97837 114.71887,36.94191 145.61559,32.35823"
       style="fill:#944035;fill-opacity:1;fill-rule:evenodd;stroke:none"
       id="path198" /><path
       d="m 523.19831,331.78022 -10.35915,1.17487 0.32055,2.8242 10.35774,-1.17346 -0.31914,-2.82561"
       style="fill:#2e2d2d;fill-opacity:1;fill-rule:evenodd;stroke:none"
       id="path200" /><path
       d="m 538.7314,330.36813 -10.35916,1.17486 0.32055,2.8242 10.35774,-1.17346 -0.31913,-2.8256"
       style="fill:#2e2d2d;fill-opacity:1;fill-rule:evenodd;stroke:none"
       id="path202" /></g></svg>